<?xml version="1.0" encoding="UTF-8" standalone="no"?>
<!-- Created with Inkscape (http://www.inkscape.org/) -->

<svg
   width="210mm"
   height="297mm"
   viewBox="0 0 210 297"
   version="1.1"
   id="svg1476"
   inkscape:version="1.2.2 (b0a8486541, 2022-12-01)"
   sodipodi:docname="git2prov.svg"
   xmlns:inkscape="http://www.inkscape.org/namespaces/inkscape"
   xmlns:sodipodi="http://sodipodi.sourceforge.net/DTD/sodipodi-0.dtd"
   xmlns="http://www.w3.org/2000/svg"
   xmlns:svg="http://www.w3.org/2000/svg">
  <sodipodi:namedview
     id="namedview1478"
     pagecolor="#ffffff"
     bordercolor="#666666"
     borderopacity="1.0"
     inkscape:showpageshadow="2"
     inkscape:pageopacity="0.0"
     inkscape:pagecheckerboard="0"
     inkscape:deskcolor="#d1d1d1"
     inkscape:document-units="mm"
     showgrid="false"
     inkscape:zoom="0.86631904"
     inkscape:cx="405.16252"
     inkscape:cy="511.93611"
     inkscape:window-width="1113"
     inkscape:window-height="1036"
     inkscape:window-x="797"
     inkscape:window-y="34"
     inkscape:window-maximized="1"
     inkscape:current-layer="layer1" />
  <defs
     id="defs1473">
    <marker
       style="overflow:visible"
       id="marker3849"
       refX="0"
       refY="0"
       orient="auto-start-reverse"
       inkscape:stockid="Arrow1"
       markerWidth="4.0609999"
       markerHeight="6.7076678"
       viewBox="0 0 4.0606602 6.7071068"
       inkscape:isstock="true"
       inkscape:collect="always"
       preserveAspectRatio="xMidYMid">
      <path
         style="fill:none;stroke:context-stroke;stroke-width:1;stroke-linecap:butt"
         d="M 3,-3 0,0 3,3"
         id="path3847"
         transform="rotate(180,0.125,0)"
         sodipodi:nodetypes="ccc" />
    </marker>
    <marker
       style="overflow:visible"
       id="marker3321"
       refX="0"
       refY="0"
       orient="auto-start-reverse"
       inkscape:stockid="Arrow1"
       markerWidth="4.0606604"
       markerHeight="6.7071066"
       viewBox="0 0 4.0606602 6.7071068"
       inkscape:isstock="true"
       inkscape:collect="always"
       preserveAspectRatio="xMidYMid">
      <path
         style="fill:none;stroke:context-stroke;stroke-width:1;stroke-linecap:butt"
         d="M 3,-3 0,0 3,3"
         id="path3319"
         transform="rotate(180,0.125,0)"
         sodipodi:nodetypes="ccc" />
    </marker>
    <marker
       style="overflow:visible"
       id="Arrow1"
       refX="0"
       refY="0"
       orient="auto-start-reverse"
       inkscape:stockid="Arrow1"
       markerWidth="4.0606599"
       markerHeight="6.7071066"
       viewBox="0 0 4.0606602 6.7071068"
       inkscape:isstock="true"
       inkscape:collect="always"
       preserveAspectRatio="xMidYMid">
      <path
         style="fill:none;stroke:context-stroke;stroke-width:1;stroke-linecap:butt"
         d="M 3,-3 0,0 3,3"
         id="path5057"
         transform="rotate(180,0.125,0)"
         sodipodi:nodetypes="ccc" />
    </marker>
  </defs>
  <g
     inkscape:label="Layer 1"
     inkscape:groupmode="layer"
     id="layer1">
    <rect
       style="fill:none;stroke:#000000;stroke-width:1.09115;stroke-linecap:round;stroke-linejoin:round;stroke-dasharray:none;stroke-opacity:1"
       id="rect1649"
       width="37.245178"
       height="16.271488"
       x="101.27819"
       y="57.580574"
       ry="8.1357441" />
    <g
       id="g7824"
       transform="translate(137.58336)">
      <path
         style="fill:none;stroke:#000000;stroke-width:1;stroke-linecap:butt;stroke-linejoin:miter;stroke-dasharray:none;stroke-opacity:1;marker-end:url(#Arrow1)"
         d="M 25.068237,157.12119 V 144.55682"
         id="path3050"
         sodipodi:nodetypes="cc" />
      <path
         style="fill:none;stroke:#000000;stroke-width:1;stroke-linecap:butt;stroke-linejoin:miter;stroke-dasharray:none;stroke-opacity:1;marker-end:url(#Arrow1)"
         d="M 25.068237,178.28788 V 165.72351"
         id="path3052"
         sodipodi:nodetypes="cc" />
      <path
         style="fill:none;stroke:#000000;stroke-width:1;stroke-linecap:butt;stroke-linejoin:miter;stroke-dasharray:none;stroke-opacity:1;marker-end:url(#Arrow1)"
         d="M 25.068237,199.45457 V 186.89019"
         id="path3054"
         sodipodi:nodetypes="cc" />
      <path
         style="fill:none;stroke:#000000;stroke-width:1;stroke-linecap:butt;stroke-linejoin:miter;stroke-dasharray:none;stroke-opacity:1;marker-end:url(#Arrow1)"
         d="M 47.717897,178.28788 V 165.72351"
         id="path3056"
         sodipodi:nodetypes="cc" />
      <path
         style="fill:none;stroke:#000000;stroke-width:1;stroke-linecap:butt;stroke-linejoin:miter;stroke-dasharray:none;stroke-opacity:1;marker-end:url(#Arrow1)"
         d="M 47.717897,199.45457 V 186.89019"
         id="path3058"
         sodipodi:nodetypes="cc" />
      <path
         style="fill:none;stroke:#000000;stroke-width:1;stroke-linecap:butt;stroke-linejoin:miter;stroke-dasharray:none;stroke-opacity:1;marker-end:url(#Arrow1)"
         d="m 47.717897,157.12119 c 0,-13.52148 -22.64966,0 -22.64966,-12.56437"
         id="path3062"
         sodipodi:nodetypes="cc" />
      <path
         style="fill:none;stroke:#000000;stroke-width:1;stroke-linecap:butt;stroke-linejoin:miter;stroke-dasharray:none;stroke-opacity:1;marker-end:url(#marker3321)"
         d="M 47.717897,220.62125 V 208.05688"
         id="path3315"
         sodipodi:nodetypes="cc" />
      <path
         style="fill:none;stroke:#000000;stroke-width:1;stroke-linecap:butt;stroke-linejoin:miter;stroke-dasharray:none;stroke-opacity:1;marker-end:url(#marker3321)"
         d="m 47.717897,220.62125 c 0,-12.56437 -22.64966,-0.5 -22.64966,-12.56437"
         id="path3317"
         sodipodi:nodetypes="cc" />
      <circle
         style="fill:#ffffff;fill-opacity:1;stroke:#000000;stroke-width:1;stroke-linecap:round;stroke-linejoin:round;stroke-dasharray:none;stroke-opacity:1"
         id="path2885-7"
         cx="47.717903"
         cy="224.92241"
         r="4.301157" />
      <circle
         style="fill:#ffffff;fill-opacity:1;stroke:#000000;stroke-width:1;stroke-linecap:round;stroke-linejoin:round;stroke-dasharray:none;stroke-opacity:1"
         id="path2885-5"
         cx="47.717903"
         cy="203.75572"
         r="4.301157" />
      <circle
         style="fill:#ffffff;fill-opacity:1;stroke:#000000;stroke-width:1;stroke-linecap:round;stroke-linejoin:round;stroke-dasharray:none;stroke-opacity:1"
         id="path2885-3"
         cx="25.068243"
         cy="203.75572"
         r="4.301157" />
      <circle
         style="fill:#9b9bff;fill-opacity:1;stroke:#000000;stroke-width:1;stroke-linecap:round;stroke-linejoin:round;stroke-dasharray:none;stroke-opacity:1"
         id="path2885-56"
         cx="47.717903"
         cy="182.58904"
         r="4.301157" />
      <circle
         style="fill:#ffffff;fill-opacity:1;stroke:#000000;stroke-width:1;stroke-linecap:round;stroke-linejoin:round;stroke-dasharray:none;stroke-opacity:1"
         id="path2885-2"
         cx="47.717903"
         cy="161.42235"
         r="4.301157" />
      <circle
         style="fill:#9b9bff;fill-opacity:1;stroke:#000000;stroke-width:1;stroke-linecap:round;stroke-linejoin:round;stroke-dasharray:none;stroke-opacity:1"
         id="path2885-9"
         cx="25.068243"
         cy="182.58904"
         r="4.301157" />
      <circle
         style="fill:#ffffff;fill-opacity:1;stroke:#000000;stroke-width:1;stroke-linecap:round;stroke-linejoin:round;stroke-dasharray:none;stroke-opacity:1"
         id="path2885-1"
         cx="25.068243"
         cy="161.42235"
         r="4.301157" />
      <g
         id="g3695"
         transform="translate(-81.325433,80.888865)">
        <circle
           style="fill:#ffffff;fill-opacity:1;stroke:#000000;stroke-width:1;stroke-linecap:round;stroke-linejoin:round;stroke-dasharray:none;stroke-opacity:1"
           id="path2885"
           cx="106.39368"
           cy="59.366798"
           r="4.301157" />
        <circle
           style="fill:#000000;fill-opacity:1;stroke:none;stroke-width:1.26688;stroke-linecap:round;stroke-linejoin:round;stroke-dasharray:none;stroke-opacity:1"
           id="path3572"
           cx="106.39368"
           cy="59.366798"
           r="2.3593359" />
      </g>
    </g>
    <g
       id="g3835">
      <path
         id="rect1649-3-6"
         style="fill:none;stroke:#000000;stroke-width:1.09115;stroke-linecap:round;stroke-linejoin:round"
         d="M 26.957003,83.810888 45.579592,73.227555 64.202181,83.810888 V 100.08238 H 26.957003 Z"
         sodipodi:nodetypes="cccccc" />
      <text
         xml:space="preserve"
         style="font-size:8.46667px;line-height:1.25;font-family:'Tw Cen MT';-inkscape-font-specification:'Tw Cen MT';stroke-width:0.264583"
         x="30.959297"
         y="93.82972"
         id="text3821"><tspan
           sodipodi:role="line"
           id="tspan3819"
           style="font-size:8.46667px;stroke-width:0.264583"
           x="30.959297"
           y="93.82972">provider</tspan></text>
    </g>
    <g
       id="g3830"
       transform="translate(0,-11.23907)">
      <rect
         style="fill:none;stroke:#000000;stroke-width:1.09115;stroke-linecap:round;stroke-linejoin:round;stroke-dasharray:none;stroke-opacity:1"
         id="rect1649-3"
         width="37.245178"
         height="16.271488"
         x="27.274918"
         y="47.880989"
         ry="0"
         rx="0" />
      <text
         xml:space="preserve"
         style="font-size:8.46667px;line-height:1.25;font-family:'Tw Cen MT';-inkscape-font-specification:'Tw Cen MT';stroke-width:0.264583"
         x="33.608845"
         y="58.652229"
         id="text3825"><tspan
           sodipodi:role="line"
           id="tspan3823"
           style="font-size:8.46667px;stroke-width:0.264583"
           x="33.608845"
           y="58.652229">method</tspan></text>
    </g>
    <rect
       style="fill:none;stroke:#000000;stroke-width:1.09115;stroke-linecap:round;stroke-linejoin:round;stroke-dasharray:none;stroke-opacity:1"
       id="rect3837"
       width="52.902069"
       height="16.271488"
       x="93.44973"
       y="15.703265"
       ry="8.1357441" />
    <path
       style="fill:none;stroke:#000000;stroke-width:1;stroke-linecap:butt;stroke-linejoin:miter;stroke-dasharray:none;stroke-opacity:1;marker-end:url(#marker3849)"
       d="M 45.897507,55.906787 V 69.84341"
       id="path3839"
       sodipodi:nodetypes="cc" />
    <path
       style="fill:none;stroke:#000000;stroke-width:1;stroke-linecap:butt;stroke-linejoin:miter;stroke-dasharray:none;stroke-opacity:1;marker-end:url(#marker3849)"
       d="M 75.104348,35.261546 86.306282,29.238499"
       id="path3841" />
    <path
       style="fill:none;stroke:#000000;stroke-width:1;stroke-linecap:butt;stroke-linejoin:miter;stroke-dasharray:none;stroke-opacity:1;marker-start:url(#marker3849)"
       d="M 74.75089,85.347556 94.7985,74.568373"
       id="path3845"
       sodipodi:nodetypes="cc" />
    <path
       id="text8087"
       style="font-size:5.64444px;line-height:1.25;font-family:'Tw Cen MT';-inkscape-font-specification:'Tw Cen MT';fill:#ffffff;fill-opacity:1;stroke:none;stroke-width:0.264583;stroke-opacity:1"
       d="m 84.808244,29.754383 c 0.123589,0.648851 -0.04826,0.813077 -0.666016,0.744141 -0.434443,0.07132 -0.795474,0.431687 -1.037109,0.722656 -0.546231,-0.876024 -1.902343,-1.012183 -2.611328,-0.261719 -0.476104,-0.447096 -1.221297,-0.670653 -1.8125,-0.3125 -0.274026,-0.276104 -1.065118,-0.03514 -1.533203,-0.117187 -0.44784,0.152811 -1.5355,-0.334198 -1.501954,0.3 0.05839,0.98904 -0.310314,2.380187 0.79801,2.927188 0.602345,0.360908 1.428265,0.09168 1.869959,-0.270157 0.552165,0.628764 1.654998,0.548594 2.123047,-0.103516 0.707185,0.796397 2.111767,0.687155 2.728516,-0.167969 0.417525,0.7191 1.296223,0.776083 2.022656,0.646485 0.484314,-0.07584 1.412234,0.291921 1.151172,-0.529297 0,-1.369141 0,-2.738281 0,-4.107422 -0.454314,0.12277 -1.408541,-0.254374 -1.53125,0.2 0,0.109766 0,0.219531 0,0.329297 z m -0.126953,2.216797 c 0.509683,0.181462 -0.210776,0.752537 -0.277344,0.21875 -0.0082,-0.144081 0.142561,-0.24926 0.277344,-0.21875 z" />
    <text
       xml:space="preserve"
       style="font-size:5.64444px;line-height:1.25;font-family:'Tw Cen MT';-inkscape-font-specification:'Tw Cen MT';fill:#999999;fill-opacity:1;stroke:none;stroke-width:0.264583;stroke-opacity:1"
       x="75.938385"
       y="33.332405"
       id="text4012"><tspan
         sodipodi:role="line"
         id="tspan4010"
         style="font-size:5.64444px;fill:#999999;fill-opacity:1;stroke:none;stroke-width:0.264583;stroke-opacity:1"
         x="75.938385"
         y="33.332405">used</tspan></text>
    <path
       id="text8092"
       style="font-size:5.64444px;line-height:1.25;font-family:'Tw Cen MT';-inkscape-font-specification:'Tw Cen MT';fill:#ffffff;fill-opacity:1;stroke:none;stroke-width:0.264583;stroke-opacity:1"
       d="m 78.82398,78.319028 c -0.60316,-0.494665 -1.5574,0.186014 -1.394531,0.884766 -0.539309,0.09016 -1.086308,0.06575 -1.634766,0.06641 0.258343,-0.814983 -0.43104,-0.682241 -1.007812,-0.662109 -0.686198,0 -1.372396,0 -2.058594,0 0.242057,0.770833 -0.362562,0.69499 -0.924219,0.662109 -0.683849,-0.08433 -1.495943,-0.134344 -1.95664,0.503907 -0.989179,1.019389 -0.150375,3.054003 1.320514,2.882529 2.010523,-0.127904 4.046103,-0.01709 6.066205,-0.0544 0.02069,-0.610499 -0.03974,-1.25515 0.02539,-1.847657 0.613852,0.06324 0.160514,1.045674 0.298828,1.51836 -0.09431,0.659283 0.944451,0.185497 1.365625,0.329297 0.734812,-0.06762 1.470363,0.105872 2.191016,0.0098 0.39741,-0.0048 0.728222,-0.61367 0.9375,-0.568359 0.532896,0.802301 1.863049,0.830882 2.4375,0.0625 -0.228534,0.830487 0.820312,0.383594 1.309766,0.496094 0.513442,0.02013 -0.03862,-1.183602 0.567291,-0.345488 0.736806,0.660643 2.003556,0.491064 2.58388,-0.299044 0.41982,0.71673 1.296219,0.77425 2.022657,0.644532 0.881231,-0.324982 0.0584,1.054102 0.969531,0.699218 1.152995,0 2.305989,0 3.458984,0 -0.321685,-0.892778 0.54351,-0.598677 0.914063,-0.799218 -0.108355,-0.799829 0.07913,-0.541988 0.509765,-0.126563 1.097286,0.804632 2.785273,-0.161993 2.695313,-1.501953 -0.003,-1.304428 -1.688389,-2.162153 -2.730469,-1.353516 -0.197138,-0.298434 -0.597185,-0.39396 -0.574609,-0.912109 -0.436349,0.142688 -1.483101,-0.325028 -1.43711,0.3 -0.0642,0.489963 -0.602272,0.50606 -0.376953,1.285547 -0.171638,0.754841 0.661703,0.504704 0.376953,1.372656 0.126517,0.758287 -1.017216,0.246326 -1.5,0.395313 -0.618167,6.8e-5 -1.443047,0.206849 -1.154297,-0.7 0,-1.098698 10e-7,-2.197396 0,-3.296094 -0.454955,0.122778 -1.410027,-0.254559 -1.533203,0.2 -0.08916,0.40823 0.275141,1.268414 -0.390625,1.042187 -0.540129,-0.01477 -1.023272,0.383518 -1.310546,0.753907 -0.494251,-0.781494 -1.645105,-0.993841 -2.388672,-0.449219 -0.205654,-0.286665 -0.591894,-0.392742 -0.572657,-0.904297 -0.436964,0.142723 -1.484659,-0.325285 -1.439062,0.3 0.148677,0.659354 -0.780788,0.240566 -1.169922,0.362109 -0.45358,0.126108 -1.416022,-0.256647 -1.539063,0.2 -0.01394,0.328881 -0.637306,-0.411884 -1.02539,-0.2625 -0.671933,0.232614 -0.311878,-0.608988 -0.398438,-1.01289 -0.07209,-0.505648 -1.060739,-0.09473 -1.503906,-0.229297 -0.07505,0.03633 -0.0052,0.261011 -0.0293,0.353515 z m 1.753907,2.388672 c 0.507693,0.180413 -0.217646,0.749923 -0.279297,0.220704 -0.0061,-0.13869 0.145803,-0.257408 0.279297,-0.220704 z m 9.888671,0.0039 c 0.50781,0.18333 -0.209721,0.750728 -0.277343,0.21875 -0.0077,-0.144217 0.141696,-0.250244 0.277343,-0.21875 z m -19.207031,0.01367 c 0.553557,0.23548 -0.353368,0.744367 -0.263672,0.140626 0.04325,-0.09847 0.155535,-0.168684 0.263672,-0.140626 z m 26.572266,0.02148 c 0.462803,0.14904 -0.199757,0.642408 -0.273438,0.193359 -0.0019,-0.13255 0.152629,-0.223686 0.273438,-0.193359 z" />
    <text
       xml:space="preserve"
       style="font-size:5.64444px;line-height:1.25;font-family:'Tw Cen MT';-inkscape-font-specification:'Tw Cen MT';fill:#999999;fill-opacity:1;stroke:none;stroke-width:0.264583;stroke-opacity:1"
       x="69.66835"
       y="82.072525"
       id="text4112"><tspan
         sodipodi:role="line"
         id="tspan4110"
         style="font-size:5.64444px;fill:#999999;fill-opacity:1;stroke:none;stroke-width:0.264583;stroke-opacity:1"
         x="69.66835"
         y="82.072525">attributed_to</tspan></text>
    <text
       xml:space="preserve"
       style="font-size:5.64444px;line-height:1.25;font-family:'Tw Cen MT';-inkscape-font-specification:'Tw Cen MT';fill:#999999;fill-opacity:1;stroke:none;stroke-width:0.264583;stroke-opacity:1"
       x="68.914703"
       y="50.809444"
       id="text4164"><tspan
         sodipodi:role="line"
         id="tspan4162"
         style="font-size:5.64444px;fill:#999999;fill-opacity:1;stroke:none;stroke-width:0.264583;stroke-opacity:1"
         x="68.914703"
         y="50.809444">generated_by</tspan></text>
    <path
       style="fill:none;stroke:#000000;stroke-width:1;stroke-linecap:butt;stroke-linejoin:miter;stroke-dasharray:none;stroke-opacity:1;marker-end:url(#marker3849)"
       d="M 119.66001,54.960862 119.9073,36.045645"
       id="path4168"
       sodipodi:nodetypes="cc" />
    <text
       xml:space="preserve"
       style="font-size:5.64444px;line-height:1.25;font-family:'Tw Cen MT';-inkscape-font-specification:'Tw Cen MT';fill:#999999;fill-opacity:1;stroke:none;stroke-width:0.264583;stroke-opacity:1"
       x="68.010696"
       y="55.764225"
       id="text4182"><tspan
         sodipodi:role="line"
         id="tspan4180"
         style="font-size:5.64444px;fill:#999999;fill-opacity:1;stroke:none;stroke-width:0.264583;stroke-opacity:1"
         x="68.010696"
         y="55.764225">invalidated_by</tspan></text>
    <path
       style="fill:none;stroke:#000000;stroke-width:1;stroke-linecap:butt;stroke-linejoin:miter;stroke-dasharray:none;stroke-opacity:1;marker-end:url(#marker3849)"
       d="m 73.863235,153.2866 v -4.8952"
       id="path4204" />
    <path
       style="fill:none;stroke:#000000;stroke-width:1;stroke-linecap:butt;stroke-linejoin:miter;stroke-dasharray:none;stroke-opacity:1;marker-end:url(#marker3849)"
       d="M 102.86564,153.2866 92.485826,148.3914"
       id="path4206" />
    <path
       style="fill:none;stroke:#000000;stroke-width:1;stroke-linecap:butt;stroke-linejoin:miter;stroke-dasharray:none;stroke-opacity:1;marker-end:url(#marker3849)"
       d="m 73.863235,174.45329 v -4.8952"
       id="path4208" />
    <path
       style="fill:none;stroke:#000000;stroke-width:1;stroke-linecap:butt;stroke-linejoin:miter;stroke-dasharray:none;stroke-opacity:1;marker-end:url(#marker3849)"
       d="m 73.863235,195.61998 v -4.89521"
       id="path4210" />
    <path
       style="fill:none;stroke:#000000;stroke-width:1;stroke-linecap:butt;stroke-linejoin:miter;stroke-dasharray:none;stroke-opacity:1;marker-end:url(#marker3849)"
       d="m 121.48822,174.45329 v -4.8952"
       id="path4212" />
    <path
       style="fill:none;stroke:#000000;stroke-width:1;stroke-linecap:butt;stroke-linejoin:miter;stroke-dasharray:none;stroke-opacity:1;marker-end:url(#marker3849)"
       d="m 121.48822,195.61998 v -4.89521"
       id="path4214" />
    <path
       style="fill:none;stroke:#000000;stroke-width:1;stroke-linecap:butt;stroke-linejoin:miter;stroke-dasharray:none;stroke-opacity:1;marker-end:url(#marker3849)"
       d="m 121.48822,216.78666 v -4.8952"
       id="path4218" />
    <path
       style="fill:none;stroke:#000000;stroke-width:1;stroke-linecap:butt;stroke-linejoin:miter;stroke-dasharray:none;stroke-opacity:1;marker-end:url(#marker3849)"
       d="m 102.86564,216.78666 -10.379814,-4.8952"
       id="path4220" />
    <rect
       style="fill:#ffffff;fill-opacity:1;stroke:#000000;stroke-width:1.09115;stroke-linecap:round;stroke-linejoin:round;stroke-dasharray:none;stroke-opacity:1"
       id="rect4188"
       width="37.245178"
       height="16.271488"
       x="55.240692"
       y="132.11992"
       ry="8.1357441" />
    <rect
       style="fill:#ffffff;fill-opacity:1;stroke:#000000;stroke-width:1.09115;stroke-linecap:round;stroke-linejoin:round;stroke-dasharray:none;stroke-opacity:1"
       id="rect4190"
       width="37.245178"
       height="16.271488"
       x="102.86565"
       y="153.28661"
       ry="8.1357441" />
    <rect
       style="fill:#9b9bff;fill-opacity:1;stroke:#000000;stroke-width:1.09115;stroke-linecap:round;stroke-linejoin:round;stroke-dasharray:none;stroke-opacity:1"
       id="rect4192"
       width="37.245178"
       height="16.271488"
       x="102.86565"
       y="174.45329"
       ry="8.1357441" />
    <rect
       style="fill:#ffffff;fill-opacity:1;stroke:#000000;stroke-width:1.09115;stroke-linecap:round;stroke-linejoin:round;stroke-dasharray:none;stroke-opacity:1"
       id="rect4194"
       width="37.245178"
       height="16.271488"
       x="102.86565"
       y="195.61998"
       ry="8.1357441" />
    <rect
       style="fill:#ffffff;fill-opacity:1;stroke:#000000;stroke-width:1.09115;stroke-linecap:round;stroke-linejoin:round;stroke-dasharray:none;stroke-opacity:1"
       id="rect4196"
       width="37.245178"
       height="16.271488"
       x="55.240692"
       y="153.28661"
       ry="8.1357441" />
    <rect
       style="fill:#9b9bff;fill-opacity:1;stroke:#000000;stroke-width:1.09115;stroke-linecap:round;stroke-linejoin:round;stroke-dasharray:none;stroke-opacity:1"
       id="rect4198"
       width="37.245178"
       height="16.271488"
       x="55.240692"
       y="174.45329"
       ry="8.1357441" />
    <rect
       style="fill:#ffffff;fill-opacity:1;stroke:#000000;stroke-width:1.09115;stroke-linecap:round;stroke-linejoin:round;stroke-dasharray:none;stroke-opacity:1"
       id="rect4200"
       width="37.245178"
       height="16.271488"
       x="55.240692"
       y="195.61998"
       ry="8.1357441" />
    <rect
       style="fill:#ffffff;fill-opacity:1;stroke:#000000;stroke-width:1.09115;stroke-linecap:round;stroke-linejoin:round;stroke-dasharray:none;stroke-opacity:1"
       id="rect4202"
       width="37.245178"
       height="16.271488"
       x="102.86565"
       y="216.78667"
       ry="8.1357441" />
    <text
       xml:space="preserve"
       style="font-size:7.05556px;line-height:1.25;font-family:'Tw Cen MT';-inkscape-font-specification:'Tw Cen MT';stroke-width:0.264583"
       x="63.800148"
       y="141.70605"
       id="text4266"><tspan
         sodipodi:role="line"
         id="tspan4264"
         style="stroke-width:0.264583"
         x="63.800148"
         y="141.70605">patient</tspan></text>
    <text
       xml:space="preserve"
       style="font-size:7.05556px;line-height:1.25;font-family:'Tw Cen MT';-inkscape-font-specification:'Tw Cen MT';stroke-width:0.264583"
       x="61.715855"
       y="162.99159"
       id="text4270"><tspan
         sodipodi:role="line"
         id="tspan4268"
         style="stroke-width:0.264583"
         x="61.715855"
         y="162.99159">sample 1</tspan></text>
    <text
       xml:space="preserve"
       style="font-size:7.05556px;line-height:1.25;font-family:'Tw Cen MT';-inkscape-font-specification:'Tw Cen MT';stroke-width:0.264583"
       x="108.74825"
       y="163.02432"
       id="text4274"><tspan
         sodipodi:role="line"
         id="tspan4272"
         style="stroke-width:0.264583"
         x="108.74825"
         y="163.02432">sample 2</tspan></text>
    <text
       xml:space="preserve"
       style="font-size:7.05556px;line-height:1.25;font-family:'Tw Cen MT';-inkscape-font-specification:'Tw Cen MT';stroke-width:0.264583"
       x="64.800934"
       y="184.78529"
       id="text4278"><tspan
         sodipodi:role="line"
         id="tspan4276"
         style="stroke-width:0.264583"
         x="64.800934"
         y="184.78529">data 1</tspan></text>
    <text
       xml:space="preserve"
       style="font-size:7.05556px;line-height:1.25;font-family:'Tw Cen MT';-inkscape-font-specification:'Tw Cen MT';stroke-width:0.264583"
       x="111.83335"
       y="184.81801"
       id="text4282"><tspan
         sodipodi:role="line"
         id="tspan4280"
         style="stroke-width:0.264583"
         x="111.83335"
         y="184.81801">data 2</tspan></text>
    <text
       xml:space="preserve"
       style="font-size:7.05556px;line-height:1.25;font-family:'Tw Cen MT';-inkscape-font-specification:'Tw Cen MT';stroke-width:0.264583"
       x="64.134331"
       y="205.95198"
       id="text4286"><tspan
         sodipodi:role="line"
         id="tspan4284"
         style="stroke-width:0.264583"
         x="64.134331"
         y="205.95198">result 1</tspan></text>
    <text
       xml:space="preserve"
       style="font-size:7.05556px;line-height:1.25;font-family:'Tw Cen MT';-inkscape-font-specification:'Tw Cen MT';stroke-width:0.264583"
       x="111.16673"
       y="205.9847"
       id="text4290"><tspan
         sodipodi:role="line"
         id="tspan4288"
         style="stroke-width:0.264583"
         x="111.16673"
         y="205.9847">result 2</tspan></text>
    <text
       xml:space="preserve"
       style="font-size:7.05556px;line-height:1.25;font-family:'Tw Cen MT';-inkscape-font-specification:'Tw Cen MT';stroke-width:0.264583"
       x="106.87585"
       y="227.17206"
       id="text4294"><tspan
         sodipodi:role="line"
         id="tspan4292"
         style="stroke-width:0.264583"
         x="106.87585"
         y="227.17206">final result</tspan></text>
    <g
       id="g4801"
       transform="translate(-62.441664)"
       style="stroke:#999999;stroke-opacity:1">
      <g
         id="g4456"
         transform="translate(-15.875)"
         style="stroke:#999999;stroke-opacity:1">
        <g
           id="g4426"
           transform="matrix(0.41165508,0,0,0.41165508,88.58843,133.58813)"
           style="stroke:#999999;stroke-opacity:1">
          <path
             id="path4420"
             style="fill:none;stroke:#999999;stroke-width:1.09115;stroke-linecap:round;stroke-linejoin:round;stroke-opacity:1"
             d="M 26.957003,83.810888 45.579592,73.227555 64.202181,83.810888 V 100.08238 H 26.957003 Z"
             sodipodi:nodetypes="cccccc" />
        </g>
        <g
           id="g4434"
           transform="matrix(0.41165508,0,0,0.41165508,88.58843,128.96151)"
           style="stroke:#999999;stroke-opacity:1">
          <rect
             style="fill:none;stroke:#999999;stroke-width:1.09115;stroke-linecap:round;stroke-linejoin:round;stroke-dasharray:none;stroke-opacity:1"
             id="rect4428"
             width="37.245178"
             height="16.271488"
             x="27.274918"
             y="47.880989"
             ry="0"
             rx="0" />
        </g>
        <path
           style="fill:none;stroke:#999999;stroke-width:0.411656;stroke-linecap:butt;stroke-linejoin:miter;stroke-dasharray:none;stroke-opacity:1;marker-end:url(#marker3849)"
           d="m 107.48237,156.94937 v 4.81012"
           id="path4436" />
        <path
           style="fill:none;stroke:#999999;stroke-width:0.411656;stroke-linecap:butt;stroke-linejoin:miter;stroke-dasharray:none;stroke-opacity:1;marker-end:url(#marker3849)"
           d="m 116.02017,147.2324 4.61133,-2.47943"
           id="path4438" />
        <path
           style="fill:none;stroke:#999999;stroke-width:0.411656;stroke-linecap:butt;stroke-linejoin:miter;stroke-dasharray:none;stroke-opacity:1;marker-start:url(#marker3849)"
           d="m 116.02017,156.95169 4.61133,2.47942"
           id="path4440" />
        <path
           style="fill:none;stroke:#999999;stroke-width:0.411656;stroke-linecap:butt;stroke-linejoin:miter;stroke-dasharray:none;stroke-opacity:1;marker-start:url(#marker3849)"
           d="m 116.02017,166.83748 4.61133,-2.47942"
           id="path4442" />
      </g>
      <path
         id="rect4510"
         style="fill:none;stroke:#999999;stroke-linecap:round;stroke-linejoin:round;stroke-opacity:1"
         d="m 104.13116,140.50195 h 5.02605 v 38.01248 h -5.02605 m -19.572971,0 h -5.026051 v -38.01248 h 5.026051"
         sodipodi:nodetypes="cccccccc" />
    </g>
    <path
       style="fill:none;stroke:#999999;stroke-width:1;stroke-linecap:butt;stroke-linejoin:miter;stroke-dasharray:1, 1;stroke-dashoffset:0;stroke-opacity:1;marker-start:url(#marker3849);marker-end:url(#marker3849)"
       d="m 54.192531,145.7097 c -5.76535,3.22728 -5.74707,8.02913 -0.21269,10.74548"
       id="path4521"
       sodipodi:nodetypes="cc" />
    <path
       style="fill:none;stroke:#999999;stroke-width:1;stroke-linecap:round;stroke-linejoin:miter;stroke-dasharray:none;stroke-opacity:1"
       d="m 46.735764,151.18188 h 3.118347"
       id="path4811" />
    <path
       style="fill:none;stroke:#999999;stroke-width:1;stroke-linecap:butt;stroke-linejoin:miter;stroke-dasharray:1, 1;stroke-dashoffset:0;stroke-opacity:1;marker-start:url(#marker3849);marker-end:url(#marker3849)"
       d="m 101.81754,166.87638 c -5.765347,3.22728 -5.747067,8.02913 -0.21269,10.74548"
       id="path4817"
       sodipodi:nodetypes="cc" />
    <path
       style="fill:none;stroke:#999999;stroke-width:1;stroke-linecap:butt;stroke-linejoin:miter;stroke-dasharray:1, 1;stroke-dashoffset:0;stroke-opacity:1;marker-start:url(#marker3849);marker-end:url(#marker3849)"
       d="m 101.81754,188.04306 c -5.765347,3.22728 -5.747067,8.02913 -0.21269,10.74548"
       id="path4823"
       sodipodi:nodetypes="cc" />
    <path
       style="fill:none;stroke:#999999;stroke-width:1;stroke-linecap:butt;stroke-linejoin:miter;stroke-dasharray:1, 1;stroke-dashoffset:0;stroke-opacity:1;marker-start:url(#marker3849);marker-end:url(#marker3849)"
       d="m 101.81754,203.91807 c -5.765347,3.22728 -5.747067,8.02913 -0.21269,10.74548"
       id="path4829"
       sodipodi:nodetypes="cc" />
    <path
       style="fill:none;stroke:#999999;stroke-width:1;stroke-linecap:butt;stroke-linejoin:miter;stroke-dasharray:1, 1;stroke-dashoffset:0;stroke-opacity:1;marker-start:url(#marker3849);marker-end:url(#marker3849)"
       d="m 54.192531,166.87638 c -5.76535,3.22728 -5.74707,8.02913 -0.21269,10.74548"
       id="path4835"
       sodipodi:nodetypes="cc" />
    <path
       style="fill:none;stroke:#999999;stroke-width:1;stroke-linecap:butt;stroke-linejoin:miter;stroke-dasharray:1, 1;stroke-dashoffset:0;stroke-opacity:1;marker-start:url(#marker3849);marker-end:url(#marker3849)"
       d="m 54.192531,188.04306 c -5.76535,3.22728 -5.74707,8.02913 -0.21269,10.74548"
       id="path4841"
       sodipodi:nodetypes="cc" />
    <path
       style="fill:none;stroke:#999999;stroke-width:1;stroke-linecap:butt;stroke-linejoin:miter;stroke-dasharray:1, 1;stroke-dashoffset:0;stroke-opacity:1;marker-start:url(#marker3849);marker-end:url(#marker3849)"
       d="m 88.688819,218.25347 c -0.71814,6.56802 3.202777,9.34013 8.626934,6.40987"
       id="path6464"
       sodipodi:nodetypes="cc"
       inkscape:transform-center-x="-2.6768347"
       inkscape:transform-center-y="-0.91990978" />
    <text
       xml:space="preserve"
       style="font-size:8.46667px;line-height:1.25;font-family:'Tw Cen MT';-inkscape-font-specification:'Tw Cen MT';stroke-width:0.264583"
       x="97.874214"
       y="25.976347"
       id="text7957"><tspan
         sodipodi:role="line"
         id="tspan7955"
         style="font-size:8.46667px;stroke-width:0.264583"
         x="97.874214"
         y="25.976347">sample/data</tspan></text>
    <text
       xml:space="preserve"
       style="font-size:8.46667px;line-height:1.25;font-family:'Tw Cen MT';-inkscape-font-specification:'Tw Cen MT';stroke-width:0.264583"
       x="111.84748"
       y="68.351814"
       id="text7961"><tspan
         sodipodi:role="line"
         id="tspan7959"
         style="font-size:8.46667px;stroke-width:0.264583"
         x="111.84748"
         y="68.351814">data</tspan></text>
    <path
       id="text8082"
       style="font-size:6.35px;line-height:1.25;font-family:'Tw Cen MT';-inkscape-font-specification:'Tw Cen MT';fill:#ffffff;fill-opacity:1;stroke:#ffffff;stroke-width:0;stroke-dasharray:none;stroke-opacity:1"
       d="m 51.026079,59.896806 c -0.0414,0.435203 0.224498,1.161632 -0.455078,0.865235 -0.637789,-0.02923 -1.226897,0.449089 -1.519531,0.919922 -0.521716,-0.956791 -1.939606,-1.228962 -2.759766,-0.5 0.04363,-0.575532 -0.898593,-0.165209 -0.533203,-1.0625 -0.475089,-0.06723 -1.074294,-0.01034 -1.597656,-0.0293 0.17943,0.678519 -0.152899,0.845279 -0.753125,0.74414 -0.781,0.05346 -1.700957,-0.308564 -2.322135,0.364892 -0.393797,0.666893 -0.460748,0.104099 -0.258724,-0.360985 0.386478,-0.914325 -0.96613,-1.72295 -1.585938,-0.945313 -0.372341,0.199661 -0.134785,0.907297 -0.273108,0.967984 -0.788286,-0.2768 -1.730452,0.04606 -2.199548,0.698032 -0.636676,-0.94193 -2.123449,-1.067937 -2.886719,-0.214844 -0.595976,-0.606209 -1.68575,-0.841342 -2.304687,-0.144531 -0.564657,-0.515941 -1.531357,-0.614927 -2.083985,-0.03125 0.09605,-0.663496 -0.941905,-0.19299 -1.368359,-0.333985 -0.756853,-0.170105 -1.647,-0.02123 -2.08048,0.700478 -0.920271,1.165055 0.07638,3.208296 1.612902,2.975304 0.599798,-0.127111 1.225067,-0.02594 1.835937,-0.05859 -0.112319,-0.550383 0.413661,0.127444 0.71162,0.04745 0.481073,0.130713 0.994841,-0.164832 1.325489,-0.38339 0.632124,0.622306 1.821033,0.516465 2.269532,-0.271484 0.733704,0.94044 2.328976,0.879183 2.974609,-0.130859 0.506238,0.753139 1.56137,1.02718 2.369141,0.613281 0.271612,0.290888 1.083468,0.04153 1.5625,0.125 0.0273,-0.593186 -0.04151,-0.947236 0.449218,-0.292969 0.761887,0.650275 1.766597,0.167734 2.652735,0.292969 h 1.950781 c 0.02123,-0.568442 -0.130146,-1.354106 0.335938,-0.515625 0.798156,0.91612 2.376346,0.689608 3.03125,-0.238281 0.421582,0.751895 1.337096,0.935126 2.114062,0.753906 0.810974,-0.267484 0.718834,0.368146 0.84336,0.787109 h 4.220312 c -0.144878,-0.413455 0.319081,-1.435747 -0.3,-1.375 h -3.385547 v -4.496093 c -0.494545,0.06939 -1.264446,-0.136582 -1.591797,0.1 v 0.429296 z m 11.765625,0 c -0.07921,0.348972 -1.06239,0.222437 -1.363281,0.101563 -0.497195,-0.829605 -1.907613,-0.289318 -1.720703,0.658203 -0.05421,0.360911 -1.032266,-0.03921 -1.002341,0.749224 -0.263225,0.511462 -0.4818,-0.881672 -0.726005,-1.184085 -0.233152,-0.734426 -0.469175,0.724812 -0.702942,1.011699 -0.288763,1.036224 -0.287598,-0.689566 -0.902697,-0.399104 -0.439904,0.103586 -1.708699,-0.313474 -1.09737,0.450417 0.636522,1.322253 1.272309,2.64486 1.907917,3.967552 0.242226,-0.3571 0.487297,-1.587234 0.729752,-1.344884 0.237051,0.307056 0.449877,1.676209 0.708208,1.10546 0.408466,-0.855512 0.818566,-1.710241 1.228056,-2.565263 v 2.003906 h 4.539063 c 0.06225,-0.701546 -0.126434,-1.482127 0.0918,-2.136719 v 2.136719 c 0.497078,-0.06946 1.270078,0.137005 1.59961,-0.1 -0.09831,-0.980622 0.227043,-2.055447 -0.21875,-2.968359 -0.308321,-0.481645 -0.917912,-0.728748 -1.472656,-0.580079 -0.151917,-0.426599 0.325039,-1.48207 -0.3,-1.435546 -0.434296,0.13159 -1.472193,-0.340422 -1.297657,0.4 v 0.1 z m -11.96289,2.429688 c 0.672146,0.201438 -0.172837,1.050418 -0.38086,0.378906 -0.05865,-0.222772 0.159947,-0.432988 0.38086,-0.378906 z m -23.119141,0.01367 c 0.633037,0.164148 -0.09449,1.023026 -0.359375,0.427734 -0.110664,-0.226595 0.124475,-0.4857 0.359375,-0.427734 z m 14.742188,-0.002 c 0.636752,0.166014 -0.09573,1.027894 -0.361329,0.427734 -0.103609,-0.226353 0.127438,-0.4805 0.361329,-0.427734 z m -4.023438,0.02148 c 0.793084,0.07939 0.291279,0.613601 -0.244141,0.537109 -0.333386,-0.188615 -0.106596,-0.63237 0.244141,-0.537109 z m -3.121094,0.0039 c 0.605292,0.162311 -0.122293,0.915123 -0.371094,0.373047 -0.08768,-0.219152 0.163088,-0.424415 0.371094,-0.373047 z m -5.769531,0.554688 c -0.07624,0.10946 -0.06027,-0.142487 0,0 z"
       sodipodi:nodetypes="scccccccccccccccccccccccccccccccccccccscccccccccccccccccccccccccccccccccccccccc" />
    <text
       xml:space="preserve"
       style="font-size:6.35px;line-height:1.25;font-family:'Tw Cen MT';-inkscape-font-specification:'Tw Cen MT';fill:#999999;fill-opacity:1;stroke:#ffffff;stroke-width:0;stroke-dasharray:none;stroke-opacity:1"
       x="25.909805"
       y="63.921776"
       id="text4108"><tspan
         sodipodi:role="line"
         id="tspan4106"
         style="font-size:6.35px;fill:#999999;fill-opacity:1;stroke:#ffffff;stroke-width:0;stroke-dasharray:none;stroke-opacity:1"
         x="25.909805"
         y="63.921776">associated_with</tspan></text>
    <path
       style="fill:none;stroke:#000000;stroke-width:1;stroke-linecap:butt;stroke-linejoin:miter;stroke-dasharray:none;stroke-opacity:1;marker-start:url(#marker3849)"
       d="M 75.357834,47.335337 95.405444,58.11452"
       id="path8107"
       sodipodi:nodetypes="cc" />
    <path
       id="text8123"
       style="font-size:5.64444px;line-height:1.25;font-family:'Tw Cen MT';-inkscape-font-specification:'Tw Cen MT';fill:#ffffff;fill-opacity:1;stroke:none;stroke-width:0.264583;stroke-opacity:1"
       d="m 91.018608,47.232938 c 0.126196,0.648576 -0.05062,0.81341 -0.666016,0.740234 -0.432663,0.07926 -0.794476,0.432068 -1.037109,0.72461 -0.495374,-0.780375 -1.639632,-0.989676 -2.386719,-0.453125 -0.209296,-0.282371 -0.593488,-0.389846 -0.574609,-0.900391 -0.436349,0.142688 -1.483101,-0.325028 -1.43711,0.3 0.139922,0.668697 -0.82145,0.236102 -1.224219,0.362109 -0.410805,-0.09758 -0.877597,-0.09183 -1.240625,0.152344 -0.189238,-0.187794 -0.821054,-0.254506 -1.195312,-0.169922 -0.40491,0.154865 -1.294207,-0.240069 -1.371094,0.217578 0.12258,0.703262 -0.481188,-0.3052 -0.847146,-0.208873 -0.625629,-0.164217 -1.340949,0.0565 -1.740744,0.571373 -0.361407,-0.692352 -1.204108,-0.661459 -1.859375,-0.5625 -0.659227,-0.220919 -1.02013,0.289857 -1.201172,0.208985 -0.640253,-0.432551 -1.570519,-0.334904 -2.111328,0.214844 0.196738,-0.770698 -0.857531,-0.290387 -1.298047,-0.423829 -0.879834,-0.260843 -1.907575,0.23222 -2.118452,1.161048 -0.132164,0.461202 -0.0728,0.976163 0.164546,1.39364 -0.646389,-0.110886 0.07914,0.747082 0.172694,1.082498 0.678503,1.185567 2.68334,0.904864 3.001723,-0.426565 0.01505,-0.623015 0.494909,0.209918 0.88027,0.142895 0.517426,0.109456 1.089411,0.0071 1.511719,-0.320313 -0.01305,0.608098 1.030617,0.159487 1.486328,0.298829 0.453665,-0.125372 1.414168,0.256095 1.537109,-0.2 0.04502,-0.280839 0.703941,0.410382 1.105469,0.2625 0.478683,0.01588 0.974658,-0.149188 1.316406,-0.492188 -0.198843,0.778661 0.864342,0.295293 1.309766,0.429688 0.507037,-0.07916 0.09296,-1.079441 0.229297,-1.529297 -0.192889,-0.331179 0.263262,-0.460759 0.185547,-0.103516 -0.03677,1.092858 1.103763,1.972674 2.144922,1.632813 0.899609,0 1.799218,0 2.698828,0 -0.0758,-0.766282 0.01456,-0.734723 0.488281,-0.21875 0.762344,0.505389 1.891052,0.315454 2.433594,-0.425782 0.400151,0.67029 1.227482,0.794752 1.926562,0.644532 0.95048,-0.39423 0.185079,0.92742 0.967578,0.701171 1.185677,0 2.371359,1e-6 3.557029,0 -0.19684,-0.696282 0.23656,-0.811121 0.83203,-0.685546 0.89814,0.257705 1.80269,-0.493623 1.9375,-1.371094 0.45907,0.509125 -0.29963,1.115158 -0.41406,1.669922 -0.54665,0.724988 -0.1882,0.869922 0.58047,0.751953 0.68535,0.194294 0.9524,-0.260758 1.13301,-0.853761 0.543451,-1.181546 1.085591,-2.363695 1.630271,-3.544677 -0.54448,0.06622 -1.25429,-0.126754 -1.702321,0.09068 -0.25017,1.048696 -0.42604,0.04233 -0.93127,-0.09068 -0.75065,0.05737 -1.49618,-0.08244 -2.23555,-0.02539 -0.11406,-0.478386 0.34155,-1.526449 -0.5,-1.277344 -0.55663,-0.0025 -1.29352,-0.185186 -1.0332,0.629297 0,1.122265 0,2.244531 0,3.366797 -0.85742,0 -1.714846,0 -2.572268,0 0,-1.332031 0,-2.664063 0,-3.996094 -0.454956,0.122778 -1.410028,-0.254559 -1.533203,0.2 0,0.109766 0,0.219531 0,0.329297 z m 5.859371,2.21289 c 0.51102,0.18024 -0.22019,0.747902 -0.27929,0.21875 -0.004,-0.138342 0.145,-0.256193 0.27929,-0.21875 z m -5.992184,0.002 c 0.518938,0.167949 -0.200218,0.760387 -0.269531,0.21875 -0.0084,-0.141128 0.136008,-0.247924 0.269531,-0.21875 z m -20.404297,0.0078 c 0.563018,0.216234 -0.339955,0.75758 -0.27539,0.148438 0.04625,-0.102504 0.160335,-0.180516 0.27539,-0.148438 z m 12.962891,0.0039 c 0.517785,0.177827 -0.231536,0.758625 -0.269531,0.207032 -0.002,-0.129805 0.145629,-0.235246 0.269531,-0.207032 z" />
    <text
       xml:space="preserve"
       style="font-size:5.64444px;line-height:1.25;font-family:'Tw Cen MT';-inkscape-font-specification:'Tw Cen MT';fill:#999999;fill-opacity:1;stroke:none;stroke-width:0.264583;stroke-opacity:1"
       x="68.914703"
       y="50.809444"
       id="text8113"><tspan
         sodipodi:role="line"
         id="tspan8111"
         style="font-size:5.64444px;fill:#999999;fill-opacity:1;stroke:none;stroke-width:0.264583;stroke-opacity:1"
         x="68.914703"
         y="50.809444">generated_by</tspan></text>
    <path
       id="text8127"
       style="font-size:5.64444px;line-height:1.25;font-family:'Tw Cen MT';-inkscape-font-specification:'Tw Cen MT';fill:#ffffff;fill-opacity:1;stroke:none;stroke-width:0.264583;stroke-opacity:1"
       d="m 77.053764,52.186063 c 0.253846,0.858403 -0.364204,0.84491 -1.038281,0.775391 -0.63704,-0.13498 -1.157595,0.06525 -1.773047,0 -0.551318,-0.01882 -1.164127,-0.133606 -1.259181,0.571581 -0.137785,-0.342531 -0.564897,-0.778882 -1.177538,-0.571581 -0.69682,-0.02366 -1.36367,-0.05988 -2.057422,0 -0.490678,0.122154 -0.0749,-0.65263 -0.499218,-0.855469 -0.59841,-0.660402 -1.798926,0.04855 -1.496094,0.884765 0.224884,0.874292 0.03103,1.857004 0.0957,2.773438 -0.262783,0.839736 0.714342,0.439564 1.201562,0.529297 0.97448,0 1.948959,0 2.923438,0 0.04685,-0.377361 -0.146256,-1.799653 0.218137,-0.794234 0.266775,0.432798 0.534603,1.339788 0.802141,1.471873 0.301672,-0.620174 0.602778,-1.240622 0.90355,-1.861233 0.199851,0.908964 1.20524,1.449289 2.078516,1.183594 1.27526,0 2.55052,0 3.825781,0 -0.146601,-0.841479 0.160592,-0.299828 0.572266,-0.07227 0.736393,0.28305 1.524432,-0.0373 2.292187,0.07227 0.477235,-0.04264 0.0073,-0.944273 0.612109,-0.208985 0.768631,0.522953 1.710127,0.07473 2.564454,0.208985 0.456539,-0.122497 1.412617,0.254545 1.537109,-0.2 -0.126646,-0.881551 0.196035,-0.146881 0.621058,0.0505 0.748572,0.420429 1.792771,0.202101 2.300817,-0.496985 0.398636,0.673163 1.227169,0.79594 1.926562,0.646484 0.949577,-0.393977 0.185954,0.925244 0.967579,0.699219 1.185677,0 2.371357,0 3.557027,0 -0.19749,-0.696168 0.2377,-0.808354 0.83203,-0.683594 0.89814,0.254866 1.80269,-0.492545 1.9375,-1.371094 0.45907,0.509125 -0.29963,1.115159 -0.41406,1.669922 -0.54664,0.724989 -0.1882,0.869923 0.58047,0.751953 0.685364,0.194294 0.952404,-0.260758 1.133014,-0.85376 0.54345,-1.181546 1.08559,-2.363695 1.63028,-3.544677 -0.54449,0.06622 -1.25429,-0.126755 -1.70233,0.09068 -0.25017,1.048696 -0.42604,0.04233 -0.931274,-0.09068 -0.75021,0.05781 -1.49696,-0.0828 -2.23555,-0.02539 -0.11432,-0.478777 0.34212,-1.528317 -0.5,-1.279297 -0.55638,-0.0029 -1.29124,-0.184208 -1.03125,0.629297 0,1.122917 0,2.245833 0,3.36875 -0.85807,0 -1.71614,0 -2.574217,0 0,-1.332682 0,-2.665365 0,-3.998047 -0.454956,0.122778 -1.410027,-0.254559 -1.533203,0.200001 -0.08763,0.413752 0.274473,1.268016 -0.396484,1.044141 -0.538836,-0.01391 -1.021287,0.388521 -1.306641,0.75 -0.496454,-0.778109 -1.641704,-0.991033 -2.386719,-0.449219 -0.20725,-0.285068 -0.594122,-0.390513 -0.574609,-0.902344 -0.436349,0.142688 -1.483101,-0.325028 -1.437109,0.3 0.139921,0.668697 -0.821451,0.236102 -1.224219,0.36211 -0.627075,-0.18438 -1.351451,0.04397 -1.723047,0.59375 0,-0.632813 0,-1.265625 0,-1.898438 -0.454314,0.12277 -1.408541,-0.254374 -1.53125,0.2 -0.08763,0.413752 0.274473,1.268016 -0.396484,1.044141 -0.45288,-0.0023 -0.906928,0.27723 -1.166016,0.589843 0.03311,-0.458048 0.30279,-0.995526 -0.128906,-1.384765 -0.284244,-0.267928 -0.747684,-0.351754 -1.082032,-0.134766 0.07455,-0.648642 -0.985554,-0.162623 -1.407812,-0.314453 -0.265456,-0.09537 -0.06823,0.404854 -0.129297,0.529297 z m 20.748045,2.212891 c 0.51467,0.179456 -0.21709,0.750987 -0.27734,0.220703 -0.004,-0.137073 0.14356,-0.256587 0.27734,-0.220703 z m -16.556639,0.0059 c 0.495739,0.189361 -0.21791,0.745016 -0.285156,0.21875 -0.0073,-0.146935 0.147223,-0.256 0.285156,-0.21875 z m 10.574219,-0.002 c 0.507209,0.182054 -0.210364,0.752228 -0.277344,0.21875 -0.008,-0.142823 0.142634,-0.251179 0.277344,-0.21875 z m -16.148438,0.01367 c 0.534973,0.214008 -0.303482,0.751987 -0.271484,0.166015 0.02706,-0.114086 0.156926,-0.195814 0.271484,-0.166015 z m 8.703126,0 c 0.575167,0.273298 -0.422875,0.728554 -0.246094,0.107422 0.05338,-0.07926 0.14943,-0.132951 0.246094,-0.107422 z" />
    <text
       xml:space="preserve"
       style="font-size:5.64444px;line-height:1.25;font-family:'Tw Cen MT';-inkscape-font-specification:'Tw Cen MT';fill:#999999;fill-opacity:1;stroke:none;stroke-width:0.264583;stroke-opacity:1"
       x="68.010696"
       y="55.764225"
       id="text8117"><tspan
         sodipodi:role="line"
         id="tspan8115"
         style="font-size:5.64444px;fill:#999999;fill-opacity:1;stroke:none;stroke-width:0.264583;stroke-opacity:1"
         x="68.010696"
         y="55.764225">invalidated_by</tspan></text>
    <path
       id="text8135"
       style="font-size:5.64444px;line-height:1.25;font-family:'Tw Cen MT';-inkscape-font-specification:'Tw Cen MT';fill:#ffffff;fill-opacity:1;stroke:none;stroke-width:0.264583;stroke-opacity:1"
       d="m 126.10712,39.672594 c -0.72084,-0.0039 -1.25125,0.698619 -1.21094,1.386719 -0.75801,-0.195772 -0.28957,0.834907 -0.41797,1.26875 0.34908,0.233345 0.54789,0.616959 0.41797,1.329297 -0.37095,0.232045 -1.18115,0.02483 -1.71367,0.09531 -0.69835,0.08299 -1.30244,0.07171 -1.04609,-0.8 0,-1.065364 0,-2.130729 0,-3.196093 -0.45496,0.122778 -1.41003,-0.254559 -1.53321,0.2 -0.0888,0.409306 0.27522,1.269553 -0.39257,1.042187 -0.54221,-0.0207 -1.02419,0.398209 -1.3125,0.75 -0.3854,-0.669184 -1.35311,-0.866101 -1.94922,-0.689453 -0.5625,0 -1.125,0 -1.6875,0 -0.31886,1.073613 -0.31961,0.0392 -0.91914,0 -0.61645,0.202079 -0.18484,-0.514218 -0.55938,-0.775391 -0.50553,-0.742476 -1.79016,-0.14452 -1.57226,0.712891 -0.57696,0.08515 -1.16219,0.06267 -1.74806,0.0625 0.16708,0.872337 -0.23667,0.188374 -0.66016,0.05078 -0.65327,-0.256243 -1.45716,-0.06474 -1.90234,0.482422 0,-0.611979 0,-1.223958 0,-1.835937 -0.45431,0.122769 -1.40855,-0.254374 -1.53126,0.2 -0.0884,0.409609 0.27455,1.269046 -0.39258,1.042187 -1.47109,0.01742 -2.10573,2.107236 -1.01117,3.025568 0.69664,0.738561 1.73828,0.248397 2.60571,0.368963 0.60369,0.02865 0.10301,-0.86191 0.79235,-0.147902 0.6595,0.365028 1.56149,0.249794 2.09945,-0.283738 -0.19978,0.780244 0.86308,0.297866 1.30978,0.43164 0.50703,-0.07916 0.093,-1.07944 0.22929,-1.529297 -0.0974,-0.309839 0.0533,-0.402618 0.32422,-0.27539 0,0.601562 0,1.203125 0,1.804687 0.45496,-0.122778 1.41003,0.254559 1.5332,-0.2 0.0458,-0.399067 -0.14584,-1.832612 0.21811,-0.84617 0.29259,0.604217 0.58595,1.208065 0.87955,1.811795 0.30248,-0.622521 0.60515,-1.244944 0.9082,-1.867187 0.37521,1.32778 2.33264,1.556091 3.09571,0.455078 0.41889,0.718204 1.29615,0.776619 2.02265,0.646484 0.88355,-0.32665 0.0601,1.053715 0.97149,0.699219 1.15234,0 2.30468,0 3.45703,0 -0.26161,-0.826059 0.38484,-0.744061 0.99414,-0.699219 0.0676,-0.554108 0.0101,-1.233422 0.0293,-1.835937 0.33829,0.211444 0.0475,1.051993 0.14257,1.506641 -0.0867,0.666356 0.98047,0.178912 1.40977,0.329296 0.30069,-0.285508 0.0417,-1.13074 0.1293,-1.629297 -0.0273,-0.305488 0.0784,-0.239626 0.0391,0.0063 -0.0124,1.40224 1.91006,2.256925 2.9043,1.232422 -0.14351,0.72749 0.913,0.254963 1.36132,0.390625 0.96485,0 1.92969,0 2.89454,0 -0.0882,-0.918628 0.19168,-1.914363 -0.16096,-2.783215 -0.31951,-0.634472 -1.18104,-0.762018 -1.73944,-0.421863 -0.67852,-0.404157 -1.48509,0.001 -2.22617,-0.128906 -0.13082,0.527394 -0.35124,0.14239 -0.89883,-0.01758 -0.55213,-0.203497 -1.03921,0.253793 -1.51561,0.02973 -0.56731,-0.160892 -1.13133,0.05853 -1.70899,-0.01216 -0.0332,-0.528053 0.21578,-1.238536 -0.51563,-1.3125 -0.13444,-0.0554 -0.29788,-0.07702 -0.44336,-0.07422 z m -19.86525,2.830078 c 0.51097,0.183212 -0.21344,0.749809 -0.27735,0.216797 -0.006,-0.143559 0.14219,-0.248015 0.27735,-0.216797 z m 14.23634,0 c 0.50769,0.183126 -0.21239,0.749357 -0.27734,0.216797 -0.006,-0.142882 0.14146,-0.250211 0.27734,-0.216797 z m 9.48829,0.03516 c 0.44949,0.158094 -0.20181,0.636058 -0.28321,0.195312 0.002,-0.136984 0.15764,-0.227511 0.28321,-0.195312 z" />
    <text
       xml:space="preserve"
       style="font-size:5.64444px;line-height:1.25;font-family:'Tw Cen MT';-inkscape-font-specification:'Tw Cen MT';fill:#999999;fill-opacity:1;stroke:none;stroke-width:0.264583;stroke-opacity:1"
       x="104.68719"
       y="43.863293"
       id="text4178"><tspan
         sodipodi:role="line"
         id="tspan4176"
         style="font-size:5.64444px;fill:#999999;fill-opacity:1;stroke:none;stroke-width:0.264583;stroke-opacity:1"
         x="104.68719"
         y="43.863293">derived_from</tspan></text>
    <path
       id="text8139"
       style="font-size:5.64444px;line-height:1.25;font-family:'Tw Cen MT';-inkscape-font-specification:'Tw Cen MT';fill:#ffffff;fill-opacity:1;stroke:none;stroke-width:0.264583;stroke-opacity:1"
       d="m 131.34177,44.965563 c -0.72434,-0.01366 -1.26114,0.696565 -1.21679,1.386719 -0.58135,0.05567 -0.40158,0.36445 -1.08203,-0.01953 -1.38735,-0.391878 -2.71928,1.359576 -1.87078,2.564985 0.0928,0.340142 -1.01974,0.04923 -1.3968,0.145953 -0.69881,0.06756 -1.35627,0.09377 -1.09375,-0.8 0.11457,-0.752982 -0.0805,-1.734205 -0.95012,-1.913351 -0.68244,-0.0625 -1.37666,0.07948 -2.07332,0.02195 0.13967,0.707578 -0.52704,-0.176103 -0.92959,-0.04893 -0.54308,-0.07611 -1.10225,0.158898 -1.46299,0.564557 0.0382,-0.453007 0.30057,-0.988689 -0.13086,-1.371094 -0.59793,-0.656132 -1.7929,0.04022 -1.5,0.878906 -0.0863,0.138439 -0.75797,-0.261228 -1.07812,-0.02148 -0.59187,0.385944 -0.17995,-0.04635 -0.31641,-0.460938 -0.18799,-0.907102 -1.65543,-0.82654 -1.742,0.09811 0.21462,0.70172 -0.74882,0.03225 -0.79901,0.659702 -0.25034,0.763155 -0.39137,-0.768099 -1.10664,-0.298828 -0.61228,-0.0736 -0.95639,0.136556 -1.4129,-0.03906 -0.36394,-0.160426 -1.03968,0.207754 -1.13282,0.115235 -0.85586,-0.249294 -1.71413,-0.0037 -2.5879,-0.07617 0,1.110677 0,2.221354 0,3.332031 0.45624,-0.122795 1.413,0.254929 1.53711,-0.2 0.0255,-0.539999 -0.0486,-1.13475 0.0293,-1.647656 0.32247,0.106569 0.065,0.786623 0.38053,1.064576 0.61743,1.152945 2.41756,1.082536 3.07178,-0.0017 0.40718,-0.465398 0.58061,0.877661 0.88642,1.201694 0.27415,0.789706 0.54793,-0.690996 0.82242,-0.989595 0.33972,-0.849619 0.51892,-1.001506 0.42871,0.0176 -0.26727,0.820263 0.60947,0.49652 1.10391,0.555078 0.51503,-0.127937 0.5894,-0.07478 1.2164,0.06445 0.54381,-0.0364 0.75021,-0.32067 1.09688,-0.06445 0.47809,-0.09964 1.48038,0.324914 1.2332,-0.5 0.5613,0.629039 1.73405,0.791089 2.39258,0.146484 -0.1077,0.692854 0.96262,0.20769 1.40195,0.353516 0.88762,-0.321476 0.66661,0.465689 0.99922,0.699219 1.253,0 2.50599,0 3.75899,0 -0.0384,-0.605529 -0.0938,-1.036451 0.58007,-0.660156 0.67066,0.125448 1.35888,-0.216819 1.72657,-0.777344 -0.21903,0.774883 0.28583,0.82589 0.92929,0.738281 0.86103,0.281988 0.56466,-0.59342 0.60782,-1.129297 -0.40118,-0.947007 0.63703,-0.454635 0.63086,-1.00664 0,-0.761329 0,-1.522657 0,-2.283985 -0.30948,-0.123546 -0.60573,-0.32042 -0.95118,-0.298828 z m -10.74609,2.861328 c 0.46921,0.14001 -0.18263,0.648333 -0.26953,0.197266 -7.9e-4,-0.130053 0.14919,-0.22266 0.26953,-0.197266 z m 8.11719,0 c 0.52743,0.199044 -0.33427,0.63706 -0.25586,0.128906 0.0444,-0.09485 0.15329,-0.149618 0.25586,-0.128906 z" />
    <text
       xml:space="preserve"
       style="font-size:5.64444px;line-height:1.25;font-family:'Tw Cen MT';-inkscape-font-specification:'Tw Cen MT';fill:#999999;fill-opacity:1;stroke:none;stroke-width:0.264583;stroke-opacity:1"
       x="107.6045"
       y="49.154961"
       id="text4186"><tspan
         sodipodi:role="line"
         id="tspan4184"
         style="font-size:5.64444px;fill:#999999;fill-opacity:1;stroke:none;stroke-width:0.264583;stroke-opacity:1"
         x="107.6045"
         y="49.154961">revision_of</tspan></text>
  </g>
</svg>
