<?xml version="1.0" encoding="UTF-8" standalone="no"?>
<!-- Created with Inkscape (http://www.inkscape.org/) -->

<svg
   width="210mm"
   height="297mm"
   viewBox="0 0 210 297"
   version="1.1"
   id="svg1476"
   inkscape:version="1.2.2 (b0a8486541, 2022-12-01)"
   sodipodi:docname="git2prov.svg"
   xmlns:inkscape="http://www.inkscape.org/namespaces/inkscape"
   xmlns:sodipodi="http://sodipodi.sourceforge.net/DTD/sodipodi-0.dtd"
   xmlns="http://www.w3.org/2000/svg"
   xmlns:svg="http://www.w3.org/2000/svg">
  <sodipodi:namedview
     id="namedview1478"
     pagecolor="#ffffff"
     bordercolor="#666666"
     borderopacity="1.0"
     inkscape:showpageshadow="2"
     inkscape:pageopacity="0.0"
     inkscape:pagecheckerboard="0"
     inkscape:deskcolor="#d1d1d1"
     inkscape:document-units="mm"
     showgrid="false"
     inkscape:zoom="1.3417927"
     inkscape:cx="425.17746"
     inkscape:cy="683.04145"
     inkscape:window-width="1900"
     inkscape:window-height="1036"
     inkscape:window-x="10"
     inkscape:window-y="34"
     inkscape:window-maximized="1"
     inkscape:current-layer="layer1" />
  <defs
     id="defs1473">
    <marker
       style="overflow:visible"
       id="marker3849"
       refX="0"
       refY="0"
       orient="auto-start-reverse"
       inkscape:stockid="Arrow1"
       markerWidth="4.0609999"
       markerHeight="6.7076678"
       viewBox="0 0 4.0606602 6.7071068"
       inkscape:isstock="true"
       inkscape:collect="always"
       preserveAspectRatio="xMidYMid">
      <path
         style="fill:none;stroke:context-stroke;stroke-width:1;stroke-linecap:butt"
         d="M 3,-3 0,0 3,3"
         id="path3847"
         transform="rotate(180,0.125,0)"
         sodipodi:nodetypes="ccc" />
    </marker>
    <marker
       style="overflow:visible"
       id="marker3321"
       refX="0"
       refY="0"
       orient="auto-start-reverse"
       inkscape:stockid="Arrow1"
       markerWidth="4.0606604"
       markerHeight="6.7071066"
       viewBox="0 0 4.0606602 6.7071068"
       inkscape:isstock="true"
       inkscape:collect="always"
       preserveAspectRatio="xMidYMid">
      <path
         style="fill:none;stroke:context-stroke;stroke-width:1;stroke-linecap:butt"
         d="M 3,-3 0,0 3,3"
         id="path3319"
         transform="rotate(180,0.125,0)"
         sodipodi:nodetypes="ccc" />
    </marker>
    <marker
       style="overflow:visible"
       id="Arrow1"
       refX="0"
       refY="0"
       orient="auto-start-reverse"
       inkscape:stockid="Arrow1"
       markerWidth="4.0606599"
       markerHeight="6.7071066"
       viewBox="0 0 4.0606602 6.7071068"
       inkscape:isstock="true"
       inkscape:collect="always"
       preserveAspectRatio="xMidYMid">
      <path
         style="fill:none;stroke:context-stroke;stroke-width:1;stroke-linecap:butt"
         d="M 3,-3 0,0 3,3"
         id="path5057"
         transform="rotate(180,0.125,0)"
         sodipodi:nodetypes="ccc" />
    </marker>
  </defs>
  <g
     inkscape:label="Layer 1"
     inkscape:groupmode="layer"
     id="layer1">
    <rect
       style="fill:#fff9b3;fill-opacity:1;stroke:#000000;stroke-width:0.928673;stroke-linecap:round;stroke-linejoin:round;stroke-dasharray:none;stroke-opacity:1"
       id="rect1649"
       width="31.699207"
       height="13.848592"
       x="88.667816"
       y="93.57621"
       ry="6.9242959" />
    <rect
       style="fill:#fff9b3;fill-opacity:1;stroke:#000000;stroke-width:0.928673;stroke-linecap:round;stroke-linejoin:round;stroke-dasharray:none;stroke-opacity:1"
       id="rect1649-36"
       width="31.699207"
       height="13.848592"
       x="88.667809"
       y="57.816116"
       ry="6.9242959" />
    <path
       style="fill:none;stroke:#000000;stroke-width:0.851096;stroke-linecap:butt;stroke-linejoin:miter;stroke-dasharray:none;stroke-opacity:1;marker-end:url(#Arrow1)"
       d="M 140.90245,178.29482 V 167.60134"
       id="path3050"
       sodipodi:nodetypes="cc" />
    <path
       style="fill:none;stroke:#000000;stroke-width:0.851096;stroke-linecap:butt;stroke-linejoin:miter;stroke-dasharray:none;stroke-opacity:1;marker-end:url(#Arrow1)"
       d="M 140.90245,196.3097 V 185.61622"
       id="path3052"
       sodipodi:nodetypes="cc" />
    <path
       style="fill:none;stroke:#000000;stroke-width:0.851096;stroke-linecap:butt;stroke-linejoin:miter;stroke-dasharray:none;stroke-opacity:1;marker-end:url(#Arrow1)"
       d="M 140.90245,214.32457 V 203.63109"
       id="path3054"
       sodipodi:nodetypes="cc" />
    <path
       style="fill:none;stroke:#000000;stroke-width:0.851096;stroke-linecap:butt;stroke-linejoin:miter;stroke-dasharray:none;stroke-opacity:1;marker-end:url(#Arrow1)"
       d="M 160.17948,196.3097 V 185.61622"
       id="path3056"
       sodipodi:nodetypes="cc" />
    <path
       style="fill:none;stroke:#000000;stroke-width:0.851096;stroke-linecap:butt;stroke-linejoin:miter;stroke-dasharray:none;stroke-opacity:1;marker-end:url(#Arrow1)"
       d="M 160.17948,214.32457 V 203.63109"
       id="path3058"
       sodipodi:nodetypes="cc" />
    <path
       style="fill:none;stroke:#000000;stroke-width:0.851096;stroke-linecap:butt;stroke-linejoin:miter;stroke-dasharray:none;stroke-opacity:1;marker-end:url(#Arrow1)"
       d="m 160.17948,178.29482 c 0,-11.50807 -19.27703,0 -19.27703,-10.69348"
       id="path3062"
       sodipodi:nodetypes="cc" />
    <path
       style="fill:none;stroke:#000000;stroke-width:0.851096;stroke-linecap:butt;stroke-linejoin:miter;stroke-dasharray:none;stroke-opacity:1;marker-end:url(#marker3321)"
       d="M 160.17948,232.33944 V 221.64596"
       id="path3315"
       sodipodi:nodetypes="cc" />
    <path
       style="fill:none;stroke:#000000;stroke-width:0.851096;stroke-linecap:butt;stroke-linejoin:miter;stroke-dasharray:none;stroke-opacity:1;marker-end:url(#marker3321)"
       d="m 160.17948,232.33944 c 0,-10.69348 -19.27703,-0.42555 -19.27703,-10.69348"
       id="path3317"
       sodipodi:nodetypes="cc" />
    <circle
       style="fill:#ff9999;fill-opacity:1;stroke:#000000;stroke-width:0.851096;stroke-linecap:round;stroke-linejoin:round;stroke-dasharray:none;stroke-opacity:1"
       id="path2885-7"
       cx="160.17949"
       cy="236.00015"
       r="3.6606958" />
    <circle
       style="fill:#9bff9b;fill-opacity:1;stroke:#000000;stroke-width:0.851096;stroke-linecap:round;stroke-linejoin:round;stroke-dasharray:none;stroke-opacity:1"
       id="path2885-5"
       cx="160.17949"
       cy="217.98528"
       r="3.6606958" />
    <circle
       style="fill:#9bff9b;fill-opacity:1;stroke:#000000;stroke-width:0.851096;stroke-linecap:round;stroke-linejoin:round;stroke-dasharray:none;stroke-opacity:1"
       id="path2885-3"
       cx="140.90245"
       cy="217.98528"
       r="3.6606958" />
    <circle
       style="fill:#9b9bff;fill-opacity:1;stroke:#000000;stroke-width:0.851096;stroke-linecap:round;stroke-linejoin:round;stroke-dasharray:none;stroke-opacity:1"
       id="path2885-56"
       cx="160.17949"
       cy="199.97041"
       r="3.6606958" />
    <circle
       style="fill:#ffffff;fill-opacity:1;stroke:#000000;stroke-width:0.851096;stroke-linecap:round;stroke-linejoin:round;stroke-dasharray:none;stroke-opacity:1"
       id="path2885-2"
       cx="160.17949"
       cy="181.95554"
       r="3.6606958" />
    <circle
       style="fill:#9b9bff;fill-opacity:1;stroke:#000000;stroke-width:0.851096;stroke-linecap:round;stroke-linejoin:round;stroke-dasharray:none;stroke-opacity:1"
       id="path2885-9"
       cx="140.90245"
       cy="199.97041"
       r="3.6606958" />
    <circle
       style="fill:#ffffff;fill-opacity:1;stroke:#000000;stroke-width:0.851096;stroke-linecap:round;stroke-linejoin:round;stroke-dasharray:none;stroke-opacity:1"
       id="path2885-1"
       cx="140.90245"
       cy="181.95554"
       r="3.6606958" />
    <circle
       style="fill:#ffffff;fill-opacity:1;stroke:#000000;stroke-width:0.851096;stroke-linecap:round;stroke-linejoin:round;stroke-dasharray:none;stroke-opacity:1"
       id="path2885"
       cx="140.90247"
       cy="163.94064"
       r="3.6606958" />
    <circle
       style="fill:#000000;fill-opacity:1;stroke:none;stroke-width:0.954461;stroke-linecap:round;stroke-linejoin:round;stroke-dasharray:none;stroke-opacity:1"
       id="path3572"
       cx="140.90247"
       cy="163.94064"
       r="1.7775186" />
    <path
       id="rect1649-3-6"
       style="fill:#ffdcb3;fill-opacity:1;stroke:#000000;stroke-width:0.928673;stroke-linecap:round;stroke-linejoin:round"
       d="m 25.413381,115.90073 15.849603,-9.00743 15.849603,9.00743 v 13.8486 H 25.413381 Z"
       sodipodi:nodetypes="cccccc" />
    <text
       xml:space="preserve"
       style="font-size:7.20595px;line-height:1.25;font-family:'Tw Cen MT';-inkscape-font-specification:'Tw Cen MT';stroke-width:0.225185"
       x="28.819715"
       y="124.42768"
       id="text3821"><tspan
         sodipodi:role="line"
         id="tspan3819"
         style="font-size:7.20595px;stroke-width:0.225185"
         x="28.819715"
         y="124.42768">provider</tspan></text>
    <rect
       style="fill:#caceff;fill-opacity:1;stroke:#000000;stroke-width:0.928673;stroke-linecap:round;stroke-linejoin:round;stroke-dasharray:none;stroke-opacity:1"
       id="rect1649-3"
       width="31.699207"
       height="13.848592"
       x="25.683956"
       y="75.755424"
       ry="0"
       rx="0" />
    <text
       xml:space="preserve"
       style="font-size:7.20595px;line-height:1.25;font-family:'Tw Cen MT';-inkscape-font-specification:'Tw Cen MT';stroke-width:0.225185"
       x="31.074734"
       y="84.922775"
       id="text3825"><tspan
         sodipodi:role="line"
         id="tspan3823"
         style="font-size:7.20595px;stroke-width:0.225185"
         x="31.074734"
         y="84.922775">method</tspan></text>
    <path
       style="fill:none;stroke:#999999;stroke-width:0.851096;stroke-linecap:butt;stroke-linejoin:miter;stroke-dasharray:none;stroke-opacity:1;marker-end:url(#marker3849)"
       d="M 41.53356,92.151668 V 104.01307"
       id="path3839"
       sodipodi:nodetypes="cc" />
    <path
       style="fill:none;stroke:#999999;stroke-width:0.851096;stroke-linecap:butt;stroke-linejoin:miter;stroke-dasharray:none;stroke-opacity:1;marker-start:url(#marker3849)"
       d="m 66.090547,117.20858 17.062432,-9.17412"
       id="path3845"
       sodipodi:nodetypes="cc" />
    <path
       style="fill:none;stroke:#999999;stroke-width:0.851096;stroke-linecap:butt;stroke-linejoin:miter;stroke-dasharray:none;stroke-opacity:1;marker-start:url(#marker3849)"
       d="M 83.153554,66.841687 66.091122,76.015802"
       id="path918"
       sodipodi:nodetypes="cc" />
    <g
       id="g923"
       transform="matrix(0.85109557,0,0,0.85109557,5.9344016,43.980893)">
      <path
         id="text8087"
         style="font-size:5.64444px;line-height:1.25;font-family:'Tw Cen MT';-inkscape-font-specification:'Tw Cen MT';fill:#ffffff;fill-opacity:1;stroke:none;stroke-width:0.264583;stroke-opacity:1"
         d="m 84.808244,29.754383 c 0.123589,0.648851 -0.04826,0.813077 -0.666016,0.744141 -0.434443,0.07132 -0.795474,0.431687 -1.037109,0.722656 -0.546231,-0.876024 -1.902343,-1.012183 -2.611328,-0.261719 -0.476104,-0.447096 -1.221297,-0.670653 -1.8125,-0.3125 -0.274026,-0.276104 -1.065118,-0.03514 -1.533203,-0.117187 -0.44784,0.152811 -1.5355,-0.334198 -1.501954,0.3 0.05839,0.98904 -0.310314,2.380187 0.79801,2.927188 0.602345,0.360908 1.428265,0.09168 1.869959,-0.270157 0.552165,0.628764 1.654998,0.548594 2.123047,-0.103516 0.707185,0.796397 2.111767,0.687155 2.728516,-0.167969 0.417525,0.7191 1.296223,0.776083 2.022656,0.646485 0.484314,-0.07584 1.412234,0.291921 1.151172,-0.529297 0,-1.369141 0,-2.738281 0,-4.107422 -0.454314,0.12277 -1.408541,-0.254374 -1.53125,0.2 0,0.109766 0,0.219531 0,0.329297 z m -0.126953,2.216797 c 0.509683,0.181462 -0.210776,0.752537 -0.277344,0.21875 -0.0082,-0.144081 0.142561,-0.24926 0.277344,-0.21875 z" />
      <text
         xml:space="preserve"
         style="font-size:5.64444px;line-height:1.25;font-family:'Tw Cen MT';-inkscape-font-specification:'Tw Cen MT';fill:#0c0c0c;fill-opacity:1;stroke:none;stroke-width:0.264583;stroke-opacity:1"
         x="75.938385"
         y="33.332405"
         id="text4012"><tspan
           sodipodi:role="line"
           id="tspan4010"
           style="font-size:5.64444px;fill:#0c0c0c;fill-opacity:1;stroke:none;stroke-width:0.264583;stroke-opacity:1"
           x="75.938385"
           y="33.332405">used</tspan></text>
    </g>
    <path
       id="text8092"
       style="font-size:5.64444px;line-height:1.25;font-family:'Tw Cen MT';-inkscape-font-specification:'Tw Cen MT';fill:#ffffff;fill-opacity:1;stroke:none;stroke-width:0.225185;stroke-opacity:1"
       d="m 69.557136,111.22663 c -0.513347,-0.421 -1.325497,0.15832 -1.18688,0.75302 -0.459003,0.0767 -0.924552,0.056 -1.391342,0.0565 0.219875,-0.69363 -0.366856,-0.58065 -0.857744,-0.56352 -0.58402,0 -1.16804,0 -1.75206,0 0.206013,0.65606 -0.308575,0.59151 -0.786599,0.56352 -0.582021,-0.0718 -1.27319,-0.11434 -1.665288,0.42888 -0.841886,0.86759 -0.127983,2.59924 1.123884,2.4533 1.711147,-0.10886 3.44362,-0.0145 5.16292,-0.0463 0.01761,-0.51959 -0.03382,-1.06825 0.02161,-1.57253 0.522446,0.0538 0.136612,0.88997 0.254331,1.29227 -0.08027,0.56111 0.803818,0.15787 1.162277,0.28026 0.625395,-0.0575 1.25142,0.0901 1.864764,0.008 0.338234,-0.004 0.619787,-0.52229 0.797902,-0.48372 0.453546,0.68283 1.585633,0.70716 2.074546,0.0532 -0.194505,0.70682 0.698164,0.32647 1.114736,0.42222 0.436988,0.0171 -0.03287,-1.00736 0.482819,-0.29404 0.627092,0.56227 1.705217,0.41794 2.199128,-0.25452 0.357307,0.61001 1.103207,0.65896 1.721475,0.54856 0.750012,-0.27659 0.0497,0.89714 0.825163,0.5951 0.981309,0 1.962617,0 2.943926,0 -0.273784,-0.75984 0.462579,-0.50953 0.777955,-0.68021 -0.09222,-0.68073 0.06735,-0.46128 0.433859,-0.10772 0.933895,0.68482 2.370534,-0.13787 2.293969,-1.2783 -0.0026,-1.1102 -1.43698,-1.8402 -2.32389,-1.15197 -0.167783,-0.254 -0.508262,-0.3353 -0.489047,-0.7763 -0.371375,0.12144 -1.262261,-0.27663 -1.223118,0.25533 -0.05464,0.41701 -0.512591,0.43071 -0.320823,1.09413 -0.146081,0.64244 0.563172,0.42955 0.320823,1.16826 0.107678,0.64537 -0.865748,0.20964 -1.276644,0.33645 -0.526119,5e-5 -1.22817,0.17604 -0.982417,-0.59577 0,-0.9351 10e-7,-1.8702 0,-2.80529 -0.38721,0.10449 -1.200067,-0.21666 -1.304902,0.17022 -0.07588,0.34744 0.234171,1.07954 -0.332459,0.887 -0.459701,-0.0126 -0.870902,0.32641 -1.1154,0.64164 -0.420655,-0.66512 -1.400142,-0.84585 -2.032988,-0.38232 -0.175031,-0.24398 -0.503759,-0.33426 -0.487386,-0.76965 -0.371898,0.12147 -1.263587,-0.27685 -1.224779,0.25533 0.126538,0.56118 -0.664526,0.20475 -0.995716,0.30819 -0.38604,0.10733 -1.20517,-0.21843 -1.309889,0.17022 -0.01187,0.27991 -0.542409,-0.35055 -0.872705,-0.22341 -0.57188,0.19797 -0.265438,-0.51831 -0.339109,-0.86207 -0.06136,-0.43035 -0.90279,-0.0806 -1.279968,-0.19515 -0.06387,0.0309 -0.0044,0.22214 -0.02494,0.30087 z m 1.492742,2.03299 c 0.432095,0.15355 -0.185238,0.63826 -0.237708,0.18784 -0.0052,-0.11804 0.124092,-0.21908 0.237708,-0.18784 z m 8.416204,0.003 c 0.432195,0.15603 -0.178492,0.63894 -0.236045,0.18618 -0.0066,-0.12274 0.120597,-0.21298 0.236045,-0.18618 z m -16.347019,0.0116 c 0.47113,0.20042 -0.30075,0.63353 -0.22441,0.11969 0.03681,-0.0838 0.132375,-0.14357 0.22441,-0.11969 z m 22.615538,0.0183 c 0.39389,0.12685 -0.170012,0.54675 -0.232722,0.16457 -0.0016,-0.11281 0.129902,-0.19038 0.232722,-0.16457 z" />
    <text
       xml:space="preserve"
       style="font-size:4.80396px;line-height:1.25;font-family:'Tw Cen MT';-inkscape-font-specification:'Tw Cen MT';fill:#000000;fill-opacity:1;stroke:none;stroke-width:0.225185;stroke-opacity:1"
       x="61.76482"
       y="114.42117"
       id="text4112"><tspan
         sodipodi:role="line"
         id="tspan4110"
         style="font-size:4.80396px;fill:#000000;fill-opacity:1;stroke:none;stroke-width:0.225185;stroke-opacity:1"
         x="61.76482"
         y="114.42117">attributed_to</tspan></text>
    <text
       xml:space="preserve"
       style="font-size:4.80396px;line-height:1.25;font-family:'Tw Cen MT';-inkscape-font-specification:'Tw Cen MT';fill:#999999;fill-opacity:1;stroke:none;stroke-width:0.225185;stroke-opacity:1"
       x="61.123394"
       y="87.813332"
       id="text4164"><tspan
         sodipodi:role="line"
         id="tspan4162"
         style="font-size:4.80396px;fill:#999999;fill-opacity:1;stroke:none;stroke-width:0.225185;stroke-opacity:1"
         x="61.123394"
         y="87.813332">generated_by</tspan></text>
    <path
       style="fill:none;stroke:#999999;stroke-width:0.851096;stroke-linecap:butt;stroke-linejoin:miter;stroke-dasharray:none;stroke-opacity:1;marker-end:url(#marker3849)"
       d="m 104.3125,91.346595 0.21047,-16.098657"
       id="path4168"
       sodipodi:nodetypes="cc" />
    <text
       xml:space="preserve"
       style="font-size:4.80396px;line-height:1.25;font-family:'Tw Cen MT';-inkscape-font-specification:'Tw Cen MT';fill:#999999;fill-opacity:1;stroke:none;stroke-width:0.225185;stroke-opacity:1"
       x="60.353996"
       y="92.030319"
       id="text4182"><tspan
         sodipodi:role="line"
         id="tspan4180"
         style="font-size:4.80396px;fill:#999999;fill-opacity:1;stroke:none;stroke-width:0.225185;stroke-opacity:1"
         x="60.353996"
         y="92.030319">invalidated_by</tspan></text>
    <path
       style="fill:none;stroke:#000000;stroke-width:0.851096;stroke-linecap:butt;stroke-linejoin:miter;stroke-dasharray:none;stroke-opacity:1;marker-end:url(#marker3849)"
       d="m 65.335067,175.03122 v -4.16628"
       id="path4204" />
    <path
       style="fill:none;stroke:#000000;stroke-width:0.851096;stroke-linecap:butt;stroke-linejoin:miter;stroke-dasharray:none;stroke-opacity:1;marker-end:url(#marker3849)"
       d="m 90.018886,175.03122 -8.834214,-4.16628"
       id="path4206" />
    <path
       style="fill:none;stroke:#000000;stroke-width:0.851096;stroke-linecap:butt;stroke-linejoin:miter;stroke-dasharray:none;stroke-opacity:1;marker-end:url(#marker3849)"
       d="m 65.335067,193.0461 v -4.16629"
       id="path4208" />
    <path
       style="fill:none;stroke:#000000;stroke-width:0.851096;stroke-linecap:butt;stroke-linejoin:miter;stroke-dasharray:none;stroke-opacity:1;marker-end:url(#marker3849)"
       d="m 65.335067,211.06097 v -4.16629"
       id="path4210" />
    <path
       style="fill:none;stroke:#000000;stroke-width:0.851096;stroke-linecap:butt;stroke-linejoin:miter;stroke-dasharray:none;stroke-opacity:1;marker-end:url(#marker3849)"
       d="m 105.86848,193.0461 v -4.16629"
       id="path4212" />
    <path
       style="fill:none;stroke:#000000;stroke-width:0.851096;stroke-linecap:butt;stroke-linejoin:miter;stroke-dasharray:none;stroke-opacity:1;marker-end:url(#marker3849)"
       d="m 105.86848,211.06097 v -4.16629"
       id="path4214" />
    <path
       style="fill:none;stroke:#000000;stroke-width:0.851096;stroke-linecap:butt;stroke-linejoin:miter;stroke-dasharray:none;stroke-opacity:1;marker-end:url(#marker3849)"
       d="m 105.86848,229.07584 v -4.16628"
       id="path4218" />
    <path
       style="fill:none;stroke:#000000;stroke-width:0.851096;stroke-linecap:butt;stroke-linejoin:miter;stroke-dasharray:none;stroke-opacity:1;marker-end:url(#marker3849)"
       d="m 90.018886,229.07584 -8.834214,-4.16628"
       id="path4220" />
    <rect
       style="fill:#fff9b3;fill-opacity:1;stroke:#000000;stroke-width:0.928673;stroke-linecap:round;stroke-linejoin:round;stroke-dasharray:none;stroke-opacity:1"
       id="rect4188"
       width="31.699207"
       height="13.848592"
       x="49.485504"
       y="157.01636"
       ry="6.9242959" />
    <rect
       style="fill:#fff9b3;fill-opacity:1;stroke:#000000;stroke-width:0.928673;stroke-linecap:round;stroke-linejoin:round;stroke-dasharray:none;stroke-opacity:1"
       id="rect4190"
       width="31.699207"
       height="13.848592"
       x="90.01889"
       y="175.03123"
       ry="6.9242959" />
    <rect
       style="fill:#9b9bff;fill-opacity:1;stroke:#000000;stroke-width:0.928673;stroke-linecap:round;stroke-linejoin:round;stroke-dasharray:none;stroke-opacity:1"
       id="rect4192"
       width="31.699207"
       height="13.848592"
       x="90.01889"
       y="193.04611"
       ry="6.9242959" />
    <rect
       style="fill:#9bff9b;fill-opacity:1;stroke:#000000;stroke-width:0.928673;stroke-linecap:round;stroke-linejoin:round;stroke-dasharray:none;stroke-opacity:1"
       id="rect4194"
       width="31.699207"
       height="13.848592"
       x="90.01889"
       y="211.06099"
       ry="6.9242959" />
    <rect
       style="fill:#fff9b3;fill-opacity:1;stroke:#000000;stroke-width:0.928673;stroke-linecap:round;stroke-linejoin:round;stroke-dasharray:none;stroke-opacity:1"
       id="rect4196"
       width="31.699207"
       height="13.848592"
       x="49.485504"
       y="175.03123"
       ry="6.9242959" />
    <rect
       style="fill:#9b9bff;fill-opacity:1;stroke:#000000;stroke-width:0.928673;stroke-linecap:round;stroke-linejoin:round;stroke-dasharray:none;stroke-opacity:1"
       id="rect4198"
       width="31.699207"
       height="13.848592"
       x="49.485504"
       y="193.04611"
       ry="6.9242959" />
    <rect
       style="fill:#9bff9b;fill-opacity:1;stroke:#000000;stroke-width:0.928673;stroke-linecap:round;stroke-linejoin:round;stroke-dasharray:none;stroke-opacity:1"
       id="rect4200"
       width="31.699207"
       height="13.848592"
       x="49.485504"
       y="211.06099"
       ry="6.9242959" />
    <rect
       style="fill:#ff9999;fill-opacity:1;stroke:#000000;stroke-width:0.928673;stroke-linecap:round;stroke-linejoin:round;stroke-dasharray:none;stroke-opacity:1"
       id="rect4202"
       width="31.699207"
       height="13.848592"
       x="90.01889"
       y="229.07587"
       ry="6.9242959" />
    <text
       xml:space="preserve"
       style="font-size:6.00496px;line-height:1.25;font-family:'Tw Cen MT';-inkscape-font-specification:'Tw Cen MT';stroke-width:0.225185"
       x="56.77042"
       y="165.17508"
       id="text4266"><tspan
         sodipodi:role="line"
         id="tspan4264"
         style="stroke-width:0.225185"
         x="56.77042"
         y="165.17508">patient</tspan></text>
    <text
       xml:space="preserve"
       style="font-size:6.00496px;line-height:1.25;font-family:'Tw Cen MT';-inkscape-font-specification:'Tw Cen MT';stroke-width:0.225185"
       x="54.996487"
       y="183.29111"
       id="text4270"><tspan
         sodipodi:role="line"
         id="tspan4268"
         style="stroke-width:0.225185"
         x="54.996487"
         y="183.29111">sample 1</tspan></text>
    <text
       xml:space="preserve"
       style="font-size:6.00496px;line-height:1.25;font-family:'Tw Cen MT';-inkscape-font-specification:'Tw Cen MT';stroke-width:0.225185"
       x="95.025551"
       y="183.31897"
       id="text4274"><tspan
         sodipodi:role="line"
         id="tspan4272"
         style="stroke-width:0.225185"
         x="95.025551"
         y="183.31897">sample 2</tspan></text>
    <text
       xml:space="preserve"
       style="font-size:6.00496px;line-height:1.25;font-family:'Tw Cen MT';-inkscape-font-specification:'Tw Cen MT';stroke-width:0.225185"
       x="57.622185"
       y="201.83963"
       id="text4278"><tspan
         sodipodi:role="line"
         id="tspan4276"
         style="stroke-width:0.225185"
         x="57.622185"
         y="201.83963">data 1</tspan></text>
    <text
       xml:space="preserve"
       style="font-size:6.00496px;line-height:1.25;font-family:'Tw Cen MT';-inkscape-font-specification:'Tw Cen MT';stroke-width:0.225185"
       x="97.651268"
       y="201.86748"
       id="text4282"><tspan
         sodipodi:role="line"
         id="tspan4280"
         style="stroke-width:0.225185"
         x="97.651268"
         y="201.86748">data 2</tspan></text>
    <text
       xml:space="preserve"
       style="font-size:6.00496px;line-height:1.25;font-family:'Tw Cen MT';-inkscape-font-specification:'Tw Cen MT';stroke-width:0.225185"
       x="57.05484"
       y="219.85451"
       id="text4286"><tspan
         sodipodi:role="line"
         id="tspan4284"
         style="stroke-width:0.225185"
         x="57.05484"
         y="219.85451">result 1</tspan></text>
    <text
       xml:space="preserve"
       style="font-size:6.00496px;line-height:1.25;font-family:'Tw Cen MT';-inkscape-font-specification:'Tw Cen MT';stroke-width:0.225185"
       x="97.083908"
       y="219.88235"
       id="text4290"><tspan
         sodipodi:role="line"
         id="tspan4288"
         style="stroke-width:0.225185"
         x="97.083908"
         y="219.88235">result 2</tspan></text>
    <text
       xml:space="preserve"
       style="font-size:6.00496px;line-height:1.25;font-family:'Tw Cen MT';-inkscape-font-specification:'Tw Cen MT';stroke-width:0.225185"
       x="91.867691"
       y="237.91483"
       id="text4294"><tspan
         sodipodi:role="line"
         style="stroke-width:0.225185"
         x="91.867691"
         y="237.91483"
         id="tspan477">diagnostic 1</tspan></text>
    <g
       id="g4426"
       transform="matrix(0.35035782,0,0,0.35035782,11.21265,158.26594)"
       style="fill:#ffdcb3;fill-opacity:1;stroke:#999999;stroke-opacity:1">
      <path
         id="path4420"
         style="fill:#ffdcb3;fill-opacity:1;stroke:#999999;stroke-width:1.09115;stroke-linecap:round;stroke-linejoin:round;stroke-opacity:1"
         d="M 26.957003,83.810888 45.579592,73.227555 64.202181,83.810888 V 100.08238 H 26.957003 Z"
         sodipodi:nodetypes="cccccc" />
    </g>
    <g
       id="g4434"
       transform="matrix(0.35035782,0,0,0.35035782,11.21265,154.32824)"
       style="fill:#caceff;fill-opacity:1;stroke:#999999;stroke-opacity:1">
      <rect
         style="fill:#caceff;fill-opacity:1;stroke:#999999;stroke-width:1.09115;stroke-linecap:round;stroke-linejoin:round;stroke-dasharray:none;stroke-opacity:1"
         id="rect4428"
         width="37.245178"
         height="16.271488"
         x="27.274918"
         y="47.880989"
         ry="0"
         rx="0" />
    </g>
    <path
       style="fill:none;stroke:#999999;stroke-width:0.350359;stroke-linecap:butt;stroke-linejoin:miter;stroke-dasharray:none;stroke-opacity:1;marker-end:url(#marker3849)"
       d="m 27.293198,178.14859 v 4.09387"
       id="path4436" />
    <path
       style="fill:none;stroke:#999999;stroke-width:0.350359;stroke-linecap:butt;stroke-linejoin:miter;stroke-dasharray:none;stroke-opacity:1;marker-end:url(#marker3849)"
       d="m 34.559682,169.87852 3.924683,-2.11024"
       id="path4438" />
    <path
       style="fill:none;stroke:#999999;stroke-width:0.350359;stroke-linecap:butt;stroke-linejoin:miter;stroke-dasharray:none;stroke-opacity:1;marker-start:url(#marker3849)"
       d="m 34.559682,178.15056 3.924683,2.11022"
       id="path4440" />
    <path
       style="fill:none;stroke:#999999;stroke-width:0.350359;stroke-linecap:butt;stroke-linejoin:miter;stroke-dasharray:none;stroke-opacity:1;marker-start:url(#marker3849)"
       d="m 34.559682,186.56431 3.924683,-2.11022"
       id="path4442" />
    <path
       id="rect4510"
       style="fill:none;stroke:#999999;stroke-width:0.851096;stroke-linecap:round;stroke-linejoin:round;stroke-opacity:1"
       d="m 37.952141,164.15026 h 4.277648 v 32.35225 h -4.277648 m -16.658469,0 h -4.27765 v -32.35225 h 4.27765"
       sodipodi:nodetypes="cccccccc" />
    <path
       style="fill:none;stroke:#999999;stroke-width:0.851096;stroke-linecap:butt;stroke-linejoin:miter;stroke-dasharray:0.851096, 0.851096;stroke-dashoffset:0;stroke-opacity:1;marker-start:url(#marker3849);marker-end:url(#marker3849)"
       d="m 48.593418,168.58255 c -4.906864,2.74673 -4.891306,6.83356 -0.181019,9.14543"
       id="path4521"
       sodipodi:nodetypes="cc" />
    <path
       style="fill:none;stroke:#999999;stroke-width:0.851096;stroke-linecap:round;stroke-linejoin:miter;stroke-dasharray:none;stroke-opacity:1"
       d="m 42.246997,173.2399 h 2.654011"
       id="path4811" />
    <path
       style="fill:none;stroke:#999999;stroke-width:0.851096;stroke-linecap:butt;stroke-linejoin:miter;stroke-dasharray:0.851096, 0.851096;stroke-dashoffset:0;stroke-opacity:1;marker-start:url(#marker3849);marker-end:url(#marker3849)"
       d="m 89.126853,186.59742 c -4.906862,2.74673 -4.891304,6.83356 -0.18102,9.14543"
       id="path4817"
       sodipodi:nodetypes="cc" />
    <path
       style="fill:none;stroke:#999999;stroke-width:0.851096;stroke-linecap:butt;stroke-linejoin:miter;stroke-dasharray:0.851096, 0.851096;stroke-dashoffset:0;stroke-opacity:1;marker-start:url(#marker3849);marker-end:url(#marker3849)"
       d="m 89.126853,204.61229 c -4.906862,2.74672 -4.891304,6.83356 -0.18102,9.14543"
       id="path4823"
       sodipodi:nodetypes="cc" />
    <path
       style="fill:none;stroke:#999999;stroke-width:0.851096;stroke-linecap:butt;stroke-linejoin:miter;stroke-dasharray:0.851096, 0.851096;stroke-dashoffset:0;stroke-opacity:1;marker-start:url(#marker3849);marker-end:url(#marker3849)"
       d="m 89.126853,218.12344 c -4.906862,2.74672 -4.891304,6.83356 -0.18102,9.14543"
       id="path4829"
       sodipodi:nodetypes="cc" />
    <path
       style="fill:none;stroke:#999999;stroke-width:0.851096;stroke-linecap:butt;stroke-linejoin:miter;stroke-dasharray:0.851096, 0.851096;stroke-dashoffset:0;stroke-opacity:1;marker-start:url(#marker3849);marker-end:url(#marker3849)"
       d="m 48.593418,186.59742 c -4.906864,2.74673 -4.891306,6.83356 -0.181019,9.14543"
       id="path4835"
       sodipodi:nodetypes="cc" />
    <path
       style="fill:none;stroke:#999999;stroke-width:0.851096;stroke-linecap:butt;stroke-linejoin:miter;stroke-dasharray:0.851096, 0.851096;stroke-dashoffset:0;stroke-opacity:1;marker-start:url(#marker3849);marker-end:url(#marker3849)"
       d="m 48.593418,204.61229 c -4.906864,2.74672 -4.891306,6.83356 -0.181019,9.14543"
       id="path4841"
       sodipodi:nodetypes="cc" />
    <path
       style="fill:none;stroke:#999999;stroke-width:0.851096;stroke-linecap:butt;stroke-linejoin:miter;stroke-dasharray:0.851096, 0.851096;stroke-dashoffset:0;stroke-opacity:1;marker-start:url(#marker3849);marker-end:url(#marker3849)"
       d="m 77.953056,230.32424 c -0.611205,5.59001 2.72587,7.94934 7.342346,5.45541"
       id="path6464"
       sodipodi:nodetypes="cc"
       inkscape:transform-center-x="-2.2782422"
       inkscape:transform-center-y="-0.78292773" />
    <text
       xml:space="preserve"
       style="font-size:7.20595px;line-height:1.25;font-family:'Tw Cen MT';-inkscape-font-specification:'Tw Cen MT';stroke-width:0.225185"
       x="96.593681"
       y="66.678009"
       id="text7957"><tspan
         sodipodi:role="line"
         id="tspan7955"
         style="font-size:7.20595px;stroke-width:0.225185"
         x="96.593681"
         y="66.678009">entity</tspan></text>
    <text
       xml:space="preserve"
       style="font-size:7.20595px;line-height:1.25;font-family:'Tw Cen MT';-inkscape-font-specification:'Tw Cen MT';stroke-width:0.225185"
       x="96.593697"
       y="102.74355"
       id="text7961"><tspan
         sodipodi:role="line"
         id="tspan7959"
         style="font-size:7.20595px;stroke-width:0.225185"
         x="96.593697"
         y="102.74355">entity</tspan></text>
    <path
       id="text8082"
       style="font-size:6.35px;line-height:1.25;font-family:'Tw Cen MT';-inkscape-font-specification:'Tw Cen MT';fill:#ffffff;fill-opacity:1;stroke:#ffffff;stroke-width:0;stroke-dasharray:none;stroke-opacity:1"
       d="m 45.898465,95.547553 c -0.03524,0.3704 0.191069,0.98866 -0.387315,0.7364 -0.542819,-0.0249 -1.044206,0.38222 -1.293266,0.78294 -0.44403,-0.81432 -1.65079,-1.04596 -2.348825,-0.42555 0.03713,-0.48983 -0.764788,-0.14061 -0.453806,-0.90429 -0.404346,-0.0572 -0.914327,-0.009 -1.359758,-0.0249 0.152712,0.57749 -0.130132,0.71942 -0.640982,0.63334 -0.664705,0.0455 -1.447677,-0.26262 -1.976358,0.31056 -0.335159,0.56759 -0.392141,0.0886 -0.220199,-0.30724 0.328929,-0.77817 -0.822269,-1.46639 -1.349785,-0.80455 -0.316898,0.16993 -0.114715,0.7722 -0.232441,0.82385 -0.670907,-0.23558 -1.47278,0.0392 -1.872026,0.59409 -0.541872,-0.80167 -1.807258,-0.90892 -2.456873,-0.18285 -0.507233,-0.51594 -1.434735,-0.71606 -1.961509,-0.12301 -0.480577,-0.43912 -1.303332,-0.52336 -1.773671,-0.0266 0.08175,-0.5647 -0.801651,-0.16425 -1.164604,-0.28425 -0.644154,-0.14478 -1.401754,-0.0181 -1.770687,0.59617 -0.783239,0.99157 0.06501,2.73057 1.372733,2.53227 0.510486,-0.10819 1.042649,-0.0221 1.562558,-0.0499 -0.09559,-0.46843 0.352065,0.10846 0.605657,0.0404 0.409439,0.11125 0.846705,-0.14029 1.128118,-0.3263 0.537998,0.52964 1.549873,0.43956 1.931588,-0.23106 0.624453,0.8004 1.982182,0.74827 2.531677,-0.11138 0.430857,0.641 1.328875,0.87423 2.016365,0.52196 0.231168,0.24758 0.922135,0.0353 1.329837,0.10639 0.02323,-0.50486 -0.03533,-0.80619 0.382328,-0.24934 0.648438,0.55344 1.503542,0.14275 2.257731,0.24934 h 1.660301 c 0.01807,-0.4838 -0.110767,-1.15247 0.285915,-0.43884 0.679307,0.7797 2.022498,0.58692 2.579884,-0.2028 0.358806,0.63993 1.137996,0.79588 1.799268,0.64164 0.690217,-0.22765 0.611797,0.31333 0.71778,0.669907 h 3.591889 c -0.123305,-0.351877 0.271569,-1.221947 -0.255329,-1.170247 h -2.881424 v -3.8266 c -0.420905,0.0591 -1.076164,-0.11624 -1.354771,0.0851 z m 10.013671,0 c -0.06741,0.29701 -0.904195,0.18932 -1.160282,0.0864 -0.42316,-0.70607 -1.623561,-0.24624 -1.464483,0.5602 -0.04614,0.30717 -0.878557,-0.0334 -0.853088,0.63766 -0.224029,0.4353 -0.410058,-0.75039 -0.617899,-1.00777 -0.198435,-0.62507 -0.399313,0.61688 -0.598271,0.86105 -0.245765,0.88193 -0.244774,-0.58689 -0.768282,-0.33968 -0.3744,0.0882 -1.454266,-0.26679 -0.933966,0.38335 0.541741,1.12537 1.082856,2.25103 1.623819,3.376767 0.206158,-0.303927 0.414737,-1.350887 0.621089,-1.144627 0.201753,0.26134 0.382888,1.426617 0.602753,0.94086 0.347643,-0.72813 0.696678,-1.45558 1.045193,-2.18329 v 1.70552 h 3.863176 c 0.05298,-0.59709 -0.107607,-1.26144 0.07813,-1.81856 v 1.81856 c 0.423061,-0.0591 1.080958,0.1166 1.361421,-0.0851 -0.08367,-0.83461 0.193235,-1.74939 -0.186177,-2.52636 -0.262411,-0.40993 -0.781231,-0.62024 -1.253371,-0.4937 -0.129296,-0.36308 0.276639,-1.26139 -0.255329,-1.22179 -0.369627,0.112 -1.252977,-0.28973 -1.10443,0.34044 v 0.0851 z m -10.181562,2.0679 c 0.57206,0.17144 -0.147101,0.894 -0.324149,0.32248 -0.04992,-0.1896 0.136131,-0.36851 0.324149,-0.32248 z m -19.676599,0.0116 c 0.538775,0.1397 -0.08042,0.87069 -0.305862,0.36404 -0.09419,-0.19285 0.10594,-0.41338 0.305862,-0.36404 z m 12.547011,-0.002 c 0.541937,0.14129 -0.08147,0.87483 -0.307525,0.36404 -0.08818,-0.19265 0.108461,-0.40895 0.307525,-0.36404 z m -3.42433,0.0183 c 0.67499,0.0676 0.247906,0.52223 -0.207788,0.45713 -0.283743,-0.16053 -0.09072,-0.53821 0.207788,-0.45713 z m -2.65635,0.003 c 0.515162,0.13814 -0.104083,0.77886 -0.315836,0.3175 -0.07462,-0.18652 0.138803,-0.36122 0.315836,-0.3175 z m -4.910422,0.47209 c -0.06489,0.0932 -0.05129,-0.12127 0,0 z"
       sodipodi:nodetypes="scccccccccccccccccccccccccccccccccccccscccccccccccccccccccccccccccccccccccccccc" />
    <text
       xml:space="preserve"
       style="font-size:5.40446px;line-height:1.25;font-family:'Tw Cen MT';-inkscape-font-specification:'Tw Cen MT';fill:#000000;fill-opacity:1;stroke:#ffffff;stroke-width:0;stroke-dasharray:none;stroke-opacity:1"
       x="24.522116"
       y="98.973175"
       id="text4108"><tspan
         sodipodi:role="line"
         id="tspan4106"
         style="font-size:5.40446px;fill:#000000;fill-opacity:1;stroke:#ffffff;stroke-width:0;stroke-dasharray:none;stroke-opacity:1"
         x="24.522116"
         y="98.973175">associated_with</tspan></text>
    <path
       style="fill:none;stroke:#999999;stroke-width:0.851096;stroke-linecap:butt;stroke-linejoin:miter;stroke-dasharray:none;stroke-opacity:1;marker-start:url(#marker3849)"
       d="M 66.607114,84.856545 83.669546,94.03066"
       id="path8107"
       sodipodi:nodetypes="cc" />
    <path
       id="text8123"
       style="font-size:5.64444px;line-height:1.25;font-family:'Tw Cen MT';-inkscape-font-specification:'Tw Cen MT';fill:#ffffff;fill-opacity:1;stroke:none;stroke-width:0.225185;stroke-opacity:1"
       d="m 79.935929,84.769393 c 0.107405,0.552 -0.04308,0.69229 -0.566843,0.63001 -0.368237,0.06746 -0.676175,0.367731 -0.882679,0.616713 -0.42161,-0.664174 -1.395483,-0.842309 -2.031326,-0.385653 -0.178131,-0.240325 -0.505115,-0.331796 -0.489047,-0.766319 -0.371375,0.121441 -1.262261,-0.27663 -1.223118,0.255329 0.119087,0.569125 -0.699132,0.200945 -1.041927,0.308189 -0.349634,-0.08305 -0.746919,-0.07816 -1.055891,0.129659 -0.161059,-0.15983 -0.698795,-0.216609 -1.017324,-0.144619 -0.344617,0.131804 -1.101494,-0.204322 -1.166932,0.185179 0.104327,0.598543 -0.409537,-0.259754 -0.721003,-0.177771 -0.53247,-0.139764 -1.141275,0.04809 -1.481539,0.486293 -0.307592,-0.589257 -1.024811,-0.562964 -1.582506,-0.478741 -0.561065,-0.188023 -0.868228,0.246696 -1.022312,0.177866 -0.544917,-0.368142 -1.336662,-0.285035 -1.796942,0.182853 0.167443,-0.655938 -0.729841,-0.247147 -1.104762,-0.360719 -0.748823,-0.222002 -1.623529,0.197642 -1.803005,0.988163 -0.112484,0.392527 -0.06196,0.830808 0.140044,1.186121 -0.550139,-0.09437 0.06736,0.635838 0.146979,0.921309 0.577471,1.009031 2.283779,0.770126 2.554753,-0.363048 0.01281,-0.530245 0.421215,0.178661 0.749194,0.121618 0.440379,0.09316 0.927193,0.006 1.286618,-0.272617 -0.01111,0.517549 0.877153,0.135738 1.265007,0.254332 0.386112,-0.106704 1.203592,0.217961 1.308227,-0.170219 0.03832,-0.239021 0.599121,0.349274 0.940859,0.223412 0.407405,0.01352 0.829527,-0.126973 1.120388,-0.418899 -0.169235,0.662715 0.735637,0.251323 1.114736,0.365706 0.431537,-0.06737 0.07912,-0.918708 0.195153,-1.301578 -0.164167,-0.281865 0.224061,-0.39215 0.157919,-0.0881 -0.0313,0.930126 0.939407,1.678934 1.825533,1.38968 0.765653,0 1.531307,0 2.296961,0 -0.06451,-0.652179 0.01239,-0.62532 0.415574,-0.186177 0.648827,0.430134 1.609466,0.268481 2.071221,-0.362382 0.340566,0.570481 1.044704,0.67641 1.639688,0.548559 0.808949,-0.335528 0.15752,0.789323 0.823501,0.596763 1.009125,0 2.018254,10e-7 3.027372,0 -0.16753,-0.592602 0.201335,-0.690341 0.708137,-0.583465 0.764403,0.219332 1.534262,-0.42012 1.648998,-1.166932 0.390712,0.433314 -0.255014,0.949106 -0.352405,1.421263 -0.465251,0.617034 -0.160176,0.740387 0.494036,0.639984 0.583298,0.165363 0.810583,-0.22193 0.964299,-0.726632 0.462529,-1.005609 0.923942,-2.01173 1.387517,-3.016859 -0.463405,0.05636 -1.067521,-0.10788 -1.448838,0.07718 -0.212919,0.892541 -0.362601,0.03603 -0.7926,-0.07718 -0.638875,0.04883 -1.273392,-0.07016 -1.902667,-0.02161 -0.09708,-0.407152 0.290692,-1.299154 -0.425547,-1.087142 -0.473746,-0.0021 -1.10091,-0.157611 -0.879352,0.535592 0,0.955155 0,1.91031 0,2.865466 -0.729747,0 -1.459498,0 -2.189246,0 0,-1.133686 0,-2.267372 0,-3.401058 -0.387211,0.104496 -1.200069,-0.216654 -1.304903,0.170219 0,0.09342 0,0.186842 0,0.280262 z m 4.986885,1.883381 c 0.434927,0.153402 -0.187403,0.636536 -0.237702,0.186177 -0.0034,-0.117742 0.123409,-0.218044 0.237702,-0.186177 z m -5.099921,0.0017 c 0.441666,0.142941 -0.170405,0.647162 -0.229397,0.186178 -0.0071,-0.120114 0.115756,-0.211007 0.229397,-0.186178 z m -17.366007,0.0066 c 0.479182,0.184036 -0.289334,0.644773 -0.234383,0.126335 0.03936,-0.08724 0.13646,-0.153637 0.234383,-0.126335 z m 11.032659,0.0033 c 0.440685,0.151348 -0.197059,0.645663 -0.229396,0.176204 -0.0017,-0.110476 0.123944,-0.200217 0.229396,-0.176204 z" />
    <text
       xml:space="preserve"
       style="font-size:4.80396px;line-height:1.25;font-family:'Tw Cen MT';-inkscape-font-specification:'Tw Cen MT';fill:#000000;fill-opacity:1;stroke:none;stroke-width:0.225185;stroke-opacity:1"
       x="61.123394"
       y="87.813332"
       id="text8113"><tspan
         sodipodi:role="line"
         id="tspan8111"
         style="font-size:4.80396px;fill:#000000;fill-opacity:1;stroke:none;stroke-width:0.225185;stroke-opacity:1"
         x="61.123394"
         y="87.813332">generated_by</tspan></text>
    <path
       id="text8127"
       style="font-size:5.64444px;line-height:1.25;font-family:'Tw Cen MT';-inkscape-font-specification:'Tw Cen MT';fill:#ffffff;fill-opacity:1;stroke:none;stroke-width:0.225185;stroke-opacity:1"
       d="m 68.050513,88.984976 c 0.216047,0.730583 -0.309973,0.719099 -0.883677,0.659932 -0.542182,-0.114881 -0.985224,0.05553 -1.509032,0 -0.469225,-0.01602 -0.990784,-0.113712 -1.071684,0.48647 -0.117268,-0.291527 -0.480781,-0.662903 -1.002197,-0.48647 -0.59306,-0.02014 -1.160614,-0.05096 -1.751063,0 -0.417614,0.103965 -0.06375,-0.555451 -0.424882,-0.728086 -0.509304,-0.562065 -1.531058,0.04132 -1.273319,0.75302 0.191398,0.744106 0.02641,1.580488 0.08145,2.36046 -0.223654,0.714696 0.607973,0.374111 1.022644,0.450483 0.829376,0 1.65875,0 2.488125,0 0.03987,-0.321171 -0.124478,-1.531677 0.185656,-0.675969 0.227051,0.368352 0.454998,1.140287 0.682698,1.252704 0.256752,-0.527827 0.513022,-1.055888 0.769008,-1.584087 0.170092,0.773615 1.025774,1.233484 1.769015,1.007352 1.085368,0 2.170737,0 3.256106,0 -0.124772,-0.716179 0.136679,-0.255183 0.487053,-0.06151 0.626741,0.240903 1.297437,-0.03175 1.95087,0.06151 0.406173,-0.03629 0.0062,-0.803667 0.520963,-0.177866 0.654179,0.445083 1.455482,0.0636 2.182596,0.177866 0.388558,-0.104257 1.202272,0.216642 1.308226,-0.170219 -0.107788,-0.750285 0.166845,-0.12501 0.52858,0.04298 0.637106,0.357825 1.525819,0.172007 1.958215,-0.422982 0.339278,0.572926 1.044438,0.677421 1.639689,0.55022 0.80818,-0.335312 0.158264,0.787471 0.823502,0.595102 1.009124,0 2.018251,0 3.02737,0 -0.168083,-0.592505 0.202305,-0.687986 0.708137,-0.581804 0.764403,0.216916 1.534261,-0.419203 1.648997,-1.166932 0.390713,0.433314 -0.255013,0.949107 -0.352404,1.421263 -0.465243,0.617035 -0.160176,0.740388 0.494035,0.639984 0.583311,0.165363 0.810587,-0.22193 0.964303,-0.726631 0.462528,-1.005609 0.923941,-2.01173 1.387525,-3.016859 -0.463413,0.05636 -1.067521,-0.107881 -1.448846,0.07718 -0.212919,0.892541 -0.362601,0.03603 -0.792603,-0.07718 -0.638501,0.0492 -1.274056,-0.07047 -1.902667,-0.02161 -0.0973,-0.407485 0.291177,-1.300744 -0.425548,-1.088804 -0.473532,-0.0025 -1.098968,-0.156779 -0.877692,0.535592 0,0.955709 0,1.911418 0,2.867128 -0.7303,0 -1.460599,0 -2.190905,0 0,-1.13424 0,-2.268481 0,-3.40272 -0.387211,0.104496 -1.200067,-0.216654 -1.304902,0.17022 -0.07458,0.352142 0.233603,1.079203 -0.337446,0.888663 -0.458601,-0.01184 -0.869213,0.330669 -1.112076,0.638322 -0.42253,-0.662245 -1.397247,-0.843464 -2.031326,-0.382328 -0.17639,-0.24262 -0.505655,-0.332364 -0.489047,-0.767981 -0.371375,0.121441 -1.262261,-0.27663 -1.223117,0.255329 0.119086,0.569125 -0.699134,0.200945 -1.041928,0.30819 -0.533701,-0.156925 -1.150214,0.03742 -1.466477,0.505338 0,-0.538585 0,-1.077168 0,-1.615752 -0.386665,0.104489 -1.198803,-0.216497 -1.303241,0.170219 -0.07458,0.352142 0.233603,1.079203 -0.337445,0.888663 -0.385444,-0.002 -0.771883,0.23595 -0.992391,0.502013 0.02818,-0.389842 0.257703,-0.847288 -0.109712,-1.178567 -0.241919,-0.228032 -0.63635,-0.299376 -0.920912,-0.114699 0.06345,-0.552056 -0.838801,-0.138408 -1.198183,-0.267629 -0.225928,-0.08117 -0.05807,0.344569 -0.110044,0.450482 z m 17.658569,1.883382 c 0.438033,0.152734 -0.184765,0.639162 -0.236043,0.187839 -0.0034,-0.116662 0.122183,-0.21838 0.236043,-0.187839 z m -14.091282,0.005 c 0.421921,0.161165 -0.185463,0.63408 -0.242695,0.186177 -0.0062,-0.125055 0.1253,-0.21788 0.242695,-0.186177 z m 8.999671,-0.0017 c 0.431683,0.154945 -0.17904,0.640218 -0.236047,0.186177 -0.0068,-0.121556 0.121396,-0.213777 0.236047,-0.186177 z m -13.743864,0.01163 c 0.455313,0.182141 -0.258293,0.640012 -0.231059,0.141294 0.02303,-0.0971 0.133559,-0.166656 0.231059,-0.141294 z m 7.407192,0 c 0.489522,0.232602 -0.359907,0.620069 -0.20945,0.09143 0.04543,-0.06746 0.127179,-0.113154 0.20945,-0.09143 z" />
    <text
       xml:space="preserve"
       style="font-size:4.80396px;line-height:1.25;font-family:'Tw Cen MT';-inkscape-font-specification:'Tw Cen MT';fill:#000000;fill-opacity:1;stroke:none;stroke-width:0.225185;stroke-opacity:1"
       x="60.353996"
       y="92.030319"
       id="text8117"><tspan
         sodipodi:role="line"
         id="tspan8115"
         style="font-size:4.80396px;fill:#000000;fill-opacity:1;stroke:none;stroke-width:0.225185;stroke-opacity:1"
         x="60.353996"
         y="92.030319">invalidated_by</tspan></text>
    <path
       id="text8135"
       style="font-size:5.64444px;line-height:1.25;font-family:'Tw Cen MT';-inkscape-font-specification:'Tw Cen MT';fill:#ffffff;fill-opacity:1;stroke:none;stroke-width:0.225185;stroke-opacity:1"
       d="m 109.79961,78.334818 c -0.61351,-0.0033 -1.06494,0.594592 -1.03063,1.18023 -0.64514,-0.16662 -0.24645,0.710586 -0.35573,1.079828 0.2971,0.198599 0.46631,0.525091 0.35573,1.131359 -0.31571,0.197492 -1.00527,0.02113 -1.4585,0.08112 -0.59436,0.07063 -1.1085,0.06103 -0.89032,-0.680877 0,-0.906726 0,-1.813454 0,-2.72018 -0.38721,0.104495 -1.20007,-0.216654 -1.30491,0.170219 -0.0756,0.348358 0.23424,1.080511 -0.33411,0.887 -0.46147,-0.01762 -0.87168,0.338914 -1.11706,0.638322 -0.32802,-0.569539 -1.15163,-0.737135 -1.65898,-0.58679 -0.47874,0 -0.95748,0 -1.43622,0 -0.27138,0.913747 -0.27202,0.03336 -0.782276,0 -0.524658,0.171988 -0.157317,-0.437649 -0.476086,-0.659932 -0.430255,-0.631918 -1.523598,-0.123 -1.338144,0.606738 -0.491048,0.07247 -0.989135,0.05334 -1.487766,0.05319 0.142201,0.742442 -0.201429,0.160324 -0.561859,0.04322 -0.555995,-0.218087 -1.240183,-0.0551 -1.619073,0.410588 0,-0.520853 0,-1.041706 0,-1.562558 -0.386662,0.104488 -1.198811,-0.216497 -1.303249,0.170219 -0.07524,0.348616 0.233668,1.080079 -0.334123,0.887001 -1.252038,0.01483 -1.792178,1.793459 -0.860602,2.575047 0.592907,0.628586 1.479442,0.21141 2.217708,0.314023 0.513798,0.02438 0.08767,-0.733568 0.674365,-0.125879 0.561298,0.310674 1.328978,0.212599 1.786833,-0.241488 -0.170032,0.664062 0.734564,0.253512 1.114748,0.367367 0.431531,-0.06737 0.07915,-0.918707 0.195148,-1.301578 -0.0829,-0.263703 0.04536,-0.342666 0.275942,-0.234383 0,0.511987 0,1.023974 0,1.535961 0.387214,-0.104496 1.20007,0.216654 1.3049,-0.170219 0.03898,-0.339644 -0.124124,-1.559728 0.185632,-0.720172 0.249022,0.514247 0.498702,1.028179 0.748582,1.542011 0.25744,-0.529825 0.51504,-1.059566 0.77296,-1.589155 0.31934,1.130068 1.9853,1.324382 2.63475,0.387315 0.35651,0.61126 1.10315,0.660977 1.72147,0.55022 0.75198,-0.278011 0.0512,0.896812 0.82683,0.595102 0.98075,0 1.9615,0 2.94226,0 -0.22265,-0.703055 0.32754,-0.633267 0.84611,-0.595102 0.0575,-0.471599 0.009,-1.04976 0.0249,-1.562558 0.28791,0.179959 0.0404,0.895347 0.12134,1.282295 -0.0738,0.567133 0.83447,0.152272 1.19985,0.280263 0.25591,-0.242995 0.0355,-0.962368 0.11004,-1.386688 -0.0232,-0.259999 0.0667,-0.203944 0.0333,0.0054 -0.0106,1.193441 1.62564,1.920859 2.47184,1.048909 -0.12214,0.619164 0.77705,0.216998 1.15861,0.332459 0.82118,0 1.64235,0 2.46353,0 -0.0751,-0.78184 0.16314,-1.629305 -0.13699,-2.368782 -0.27193,-0.539996 -1.00518,-0.64855 -1.48043,-0.359045 -0.57749,-0.343977 -1.26395,8.51e-4 -1.89468,-0.109712 -0.11134,0.448863 -0.29894,0.121188 -0.76499,-0.01496 -0.46992,-0.173195 -0.88447,0.216002 -1.28993,0.0253 -0.48284,-0.136934 -0.96287,0.04982 -1.45452,-0.01035 -0.0282,-0.449424 0.18365,-1.054113 -0.43885,-1.117063 -0.11442,-0.04715 -0.25352,-0.06555 -0.37734,-0.06317 z m -16.90723,2.408667 c 0.434885,0.155931 -0.181657,0.638159 -0.236051,0.184515 -0.0051,-0.122183 0.121017,-0.211085 0.236051,-0.184515 z m 12.11649,0 c 0.43209,0.155858 -0.18077,0.637774 -0.23605,0.184515 -0.005,-0.121606 0.1204,-0.212954 0.23605,-0.184515 z m 8.07544,0.02992 c 0.38256,0.134553 -0.17176,0.541347 -0.24104,0.16623 0.002,-0.116587 0.13417,-0.193634 0.24104,-0.16623 z" />
    <text
       xml:space="preserve"
       style="font-size:4.80396px;line-height:1.25;font-family:'Tw Cen MT';-inkscape-font-specification:'Tw Cen MT';fill:#000000;fill-opacity:1;stroke:none;stroke-width:0.225185;stroke-opacity:1"
       x="91.569199"
       y="81.901497"
       id="text4178"><tspan
         sodipodi:role="line"
         id="tspan4176"
         style="font-size:4.80396px;fill:#000000;fill-opacity:1;stroke:none;stroke-width:0.225185;stroke-opacity:1"
         x="91.569199"
         y="81.901497">derived_from</tspan></text>
    <path
       id="text8139"
       style="font-size:5.64444px;line-height:1.25;font-family:'Tw Cen MT';-inkscape-font-specification:'Tw Cen MT';fill:#ffffff;fill-opacity:1;stroke:none;stroke-width:0.225185;stroke-opacity:1"
       d="m 114.25479,82.83964 c -0.61648,-0.01163 -1.07335,0.592844 -1.0356,1.180231 -0.49478,0.04738 -0.34178,0.310182 -0.92091,-0.01662 -1.18077,-0.333526 -2.31437,1.157129 -1.59221,2.183047 0.079,0.289494 -0.8679,0.0419 -1.18881,0.12422 -0.59476,0.0575 -1.15432,0.07981 -0.93089,-0.680876 0.0975,-0.64086 -0.0685,-1.475974 -0.80864,-1.628445 -0.58082,-0.05319 -1.17167,0.06764 -1.7646,0.01868 0.11888,0.602216 -0.44856,-0.149881 -0.79117,-0.04164 -0.46221,-0.06478 -0.93812,0.135237 -1.24514,0.480492 0.0325,-0.385553 0.25581,-0.841469 -0.11138,-1.166932 -0.50889,-0.558431 -1.52592,0.03423 -1.27664,0.748033 -0.0735,0.117824 -0.6451,-0.22233 -0.91758,-0.01828 -0.50374,0.328475 -0.15316,-0.03945 -0.2693,-0.392302 -0.15999,-0.772031 -1.408926,-0.703465 -1.482605,0.0835 0.182665,0.597231 -0.637318,0.02745 -0.680034,0.561469 -0.213063,0.649518 -0.333093,-0.653725 -0.941856,-0.254331 -0.521109,-0.06264 -0.81398,0.116222 -1.202513,-0.03324 -0.309748,-0.136538 -0.884867,0.176819 -0.964138,0.09808 -0.728419,-0.212173 -1.458889,-0.0031 -2.202551,-0.06483 0,0.945293 0,1.890585 0,2.835877 0.388304,-0.10451 1.202598,0.216969 1.308228,-0.170219 0.0217,-0.459591 -0.04136,-0.965781 0.02494,-1.402313 0.274453,0.0907 0.05532,0.669492 0.323867,0.906056 0.525492,0.981267 2.057575,0.921342 2.614379,-0.0014 0.346549,-0.396098 0.494154,0.746974 0.754428,1.022757 0.233328,0.672115 0.466341,-0.588104 0.699958,-0.84224 0.289134,-0.723107 0.441647,-0.852377 0.364867,0.01498 -0.227466,0.698122 0.51872,0.422586 0.93954,0.472425 0.43834,-0.108887 0.50163,-0.06365 1.03527,0.05485 0.46283,-0.03098 0.6385,-0.272921 0.93355,-0.05485 0.4069,-0.0848 1.25994,0.276533 1.04957,-0.425548 0.47772,0.535372 1.47584,0.673292 2.03631,0.124672 -0.0917,0.589685 0.81929,0.176764 1.1932,0.300876 0.75545,-0.273607 0.56735,0.396345 0.85043,0.595102 1.06642,0 2.13284,0 3.19926,0 -0.0327,-0.515363 -0.0798,-0.882119 0.49369,-0.561856 0.5708,0.106768 1.15654,-0.184534 1.46948,-0.661594 -0.18642,0.659499 0.24327,0.702911 0.79091,0.628348 0.73282,0.239998 0.48058,-0.505057 0.51732,-0.96114 -0.34145,-0.805994 0.54217,-0.386938 0.53692,-0.856747 0,-0.647964 0,-1.295927 0,-1.943889 -0.2634,-0.10515 -0.51553,-0.272708 -0.80955,-0.254332 z m -9.14595,2.435264 c 0.39935,0.119162 -0.15543,0.551793 -0.22939,0.167892 -6.7e-4,-0.110687 0.12697,-0.189505 0.22939,-0.167892 z m 6.90851,0 c 0.44889,0.169406 -0.2845,0.542199 -0.21776,0.109711 0.0378,-0.08073 0.13046,-0.127339 0.21776,-0.109711 z" />
    <text
       xml:space="preserve"
       style="font-size:4.80396px;line-height:1.25;font-family:'Tw Cen MT';-inkscape-font-specification:'Tw Cen MT';fill:#000000;fill-opacity:1;stroke:none;stroke-width:0.225185;stroke-opacity:1"
       x="94.052109"
       y="86.405212"
       id="text4186"><tspan
         sodipodi:role="line"
         id="tspan4184"
         style="font-size:4.80396px;fill:#000000;fill-opacity:1;stroke:none;stroke-width:0.225185;stroke-opacity:1"
         x="94.052109"
         y="86.405212">revision_of</tspan></text>
    <circle
       style="fill:#000000;fill-opacity:1;stroke:none;stroke-width:0.954461;stroke-linecap:round;stroke-linejoin:round;stroke-dasharray:none;stroke-opacity:1"
       id="circle7383"
       cx="160.17949"
       cy="236.00015"
       r="1.7775186" />
    <circle
       style="fill:#000000;fill-opacity:1;stroke:none;stroke-width:0.954461;stroke-linecap:round;stroke-linejoin:round;stroke-dasharray:none;stroke-opacity:1"
       id="circle7385"
       cx="160.17949"
       cy="217.98528"
       r="1.7775186" />
    <circle
       style="fill:#000000;fill-opacity:1;stroke:none;stroke-width:0.954461;stroke-linecap:round;stroke-linejoin:round;stroke-dasharray:none;stroke-opacity:1"
       id="circle7387"
       cx="140.90245"
       cy="217.98528"
       r="1.7775186" />
    <circle
       style="fill:#ffffff;fill-opacity:1;stroke:#000000;stroke-width:0.851096;stroke-linecap:round;stroke-linejoin:round;stroke-dasharray:none;stroke-opacity:1"
       id="circle9698"
       cx="141.03792"
       cy="62.913235"
       r="3.6606958" />
    <g
       id="g9712"
       transform="matrix(0.85109557,0,0,0.85109557,-16.671188,29.75176)">
      <circle
         style="fill:#ffffff;fill-opacity:1;stroke:#000000;stroke-width:1;stroke-linecap:round;stroke-linejoin:round;stroke-dasharray:none;stroke-opacity:1"
         id="circle9700"
         cx="184.98299"
         cy="55.72319"
         r="4.301157" />
      <circle
         style="fill:#000000;fill-opacity:1;stroke:none;stroke-width:1.12145;stroke-linecap:round;stroke-linejoin:round;stroke-dasharray:none;stroke-opacity:1"
         id="circle9702"
         cx="184.98299"
         cy="55.72319"
         r="2.0885065" />
    </g>
    <circle
       style="fill:#ff9999;fill-opacity:1;stroke:#000000;stroke-width:0.851096;stroke-linecap:round;stroke-linejoin:round;stroke-dasharray:none;stroke-opacity:1"
       id="circle9704"
       cx="141.03792"
       cy="119.97037"
       r="3.6606958" />
    <circle
       style="fill:#9bff9b;fill-opacity:1;stroke:#000000;stroke-width:0.851096;stroke-linecap:round;stroke-linejoin:round;stroke-dasharray:none;stroke-opacity:1"
       id="circle9706"
       cx="141.03792"
       cy="105.70608"
       r="3.6606958" />
    <circle
       style="fill:#9b9bff;fill-opacity:1;stroke:#000000;stroke-width:0.851096;stroke-linecap:round;stroke-linejoin:round;stroke-dasharray:none;stroke-opacity:1"
       id="circle9708"
       cx="140.90247"
       cy="91.441795"
       r="3.6606958" />
    <text
       xml:space="preserve"
       style="font-size:7.20595px;line-height:1.25;font-family:'Tw Cen MT';-inkscape-font-specification:'Tw Cen MT';stroke-width:0.225185"
       x="150.28305"
       y="65.034912"
       id="text9716"><tspan
         sodipodi:role="line"
         id="tspan9714"
         style="stroke-width:0.225185"
         x="150.28305"
         y="65.034912">commit</tspan></text>
    <text
       xml:space="preserve"
       style="font-size:7.20595px;line-height:1.25;font-family:'Tw Cen MT';-inkscape-font-specification:'Tw Cen MT';stroke-width:0.225185"
       x="150.66806"
       y="79.420586"
       id="text9720"><tspan
         sodipodi:role="line"
         id="tspan9718"
         style="stroke-width:0.225185"
         x="150.66806"
         y="79.420586">branch head</tspan></text>
    <text
       xml:space="preserve"
       style="font-size:7.20595px;line-height:1.25;font-family:'Tw Cen MT';-inkscape-font-specification:'Tw Cen MT';stroke-width:0.225185"
       x="151.4109"
       y="93.684853"
       id="text9724"><tspan
         sodipodi:role="line"
         id="tspan9722"
         style="stroke-width:0.225185"
         x="151.4109"
         y="93.684853">data commit</tspan></text>
    <text
       xml:space="preserve"
       style="font-size:7.20595px;line-height:1.25;font-family:'Tw Cen MT';-inkscape-font-specification:'Tw Cen MT';stroke-width:0.225185"
       x="151.36963"
       y="107.94913"
       id="text9728"><tspan
         sodipodi:role="line"
         id="tspan9726"
         style="stroke-width:0.225185"
         x="151.36963"
         y="107.94913">result commit</tspan></text>
    <text
       xml:space="preserve"
       style="font-size:7.20595px;line-height:1.25;font-family:'Tw Cen MT';-inkscape-font-specification:'Tw Cen MT';stroke-width:0.225185"
       x="150.11769"
       y="121.57306"
       id="text9732"><tspan
         sodipodi:role="line"
         id="tspan9730"
         style="stroke-width:0.225185"
         x="150.11769"
         y="121.57306">diagnostic commit</tspan></text>
  </g>
</svg>
