<?xml version="1.0" encoding="UTF-8" standalone="no"?>
<svg
   viewBox="-20.237 0 525.335 525.335"
   version="1.1"
   id="svg8"
   sodipodi:docname="sparql.svg"
   inkscape:version="1.3.2 (091e20ef0f, 2023-11-25, custom)"
   xmlns:inkscape="http://www.inkscape.org/namespaces/inkscape"
   xmlns:sodipodi="http://sodipodi.sourceforge.net/DTD/sodipodi-0.dtd"
   xmlns="http://www.w3.org/2000/svg"
   xmlns:svg="http://www.w3.org/2000/svg">
  <defs
     id="defs8" />
  <sodipodi:namedview
     id="namedview8"
     pagecolor="#ffffff"
     bordercolor="#666666"
     borderopacity="1.0"
     inkscape:showpageshadow="2"
     inkscape:pageopacity="0.0"
     inkscape:pagecheckerboard="0"
     inkscape:deskcolor="#d1d1d1"
     inkscape:window-width="1900"
     inkscape:window-height="1036"
     inkscape:window-x="10"
     inkscape:window-y="34"
     inkscape:window-maximized="1"
     inkscape:current-layer="g18" />
  <g
     id="g18"
     style="display:inline">
    <path
       id="rect1"
       style="fill:#b32424;fill-opacity:1"
       sodipodi:type="inkscape:offset"
       inkscape:radius="3.9612966"
       inkscape:original="M 338.17969 -5.9960938 C 317.607 -5.8660027 297.1877 2.4965215 282.54102 16.964844 C 277.25904 22.138526 272.69958 28.049694 269.03711 34.472656 L -6 34.472656 L -6 531.33594 L 490.86328 531.33594 L 490.86328 34.472656 L 408.57617 34.472656 C 399.71693 18.879136 385.45563 6.4365988 368.79102 -0.19921875 C 359.09519 -4.0998049 348.63234 -6.0970512 338.17969 -5.9960938 z M 15.478516 56.808594 L 260.36523 56.808594 C 258.88233 63.448512 258.25942 70.279065 258.5 77.078125 C 257.75905 78.699976 258.33069 80.499484 258.3418 82.199219 C 258.54225 84.651071 258.93977 87.174133 258.17383 89.574219 C 256.92478 94.081175 254.31323 98.074849 251.45703 101.72266 C 245.47653 109.19673 238.00611 115.32134 230.24609 120.85742 C 224.23898 125.09155 218.01431 129.02524 211.54688 132.51953 C 210.10822 133.28437 208.47294 134.14118 206.93359 134.89453 C 197.68833 139.42927 187.80788 143.03061 177.49414 143.98438 C 172.26331 144.38324 166.80724 144.18461 161.91406 142.11328 C 159.64186 141.02261 157.43921 139.78699 155.17969 138.66602 C 151.61916 136.83816 148.05875 135.0111 144.49805 133.18359 C 144.86589 134.01628 145.23372 134.84896 145.60156 135.68164 C 130.11027 130.4803 113.02587 130.17489 97.361328 134.83398 C 81.148291 139.61421 66.484691 149.59312 56.255859 163.07031 C 45.124894 177.60799 39.098855 196.01244 39.710938 214.33008 C 40.259403 233.19131 47.644531 251.79458 60.3125 265.79688 C 72.6479 279.52137 89.816109 288.82802 108.08203 291.53125 C 124.19082 293.9919 141.01801 291.36474 155.625 284.14648 C 157.9625 283.01851 160.21375 281.70291 162.44922 280.40234 C 164.01713 279.9874 165.17816 278.76737 166.56445 277.99023 C 168.70618 276.51495 170.84987 274.87855 173.45312 274.33594 C 179.42434 272.81235 185.69503 273.39355 191.6875 274.48438 C 200.42995 276.14011 208.88951 279.36441 216.91016 283.00977 C 223.1839 285.89239 229.30755 289.10724 235.20508 292.69922 C 236.59397 293.54738 238.14063 294.52485 239.56836 295.45898 C 240.14693 295.84755 240.98739 296.4046 241.6582 296.875 C 249.21197 302.09393 256.31433 308.16716 261.72656 315.63867 C 262.03389 316.06634 262.52333 316.78424 262.88281 317.33398 C 265.36676 321.20587 267.46365 325.46523 268.12891 330.05859 C 268.32474 332.05457 268.09806 334.06494 268.24805 336.06641 C 268.75962 349.62493 272.76764 363.03534 279.77344 374.6543 L 15.478516 374.6543 L 15.478516 56.808594 z M 417.23047 56.808594 L 467.66992 56.808594 L 467.66992 374.6543 L 417.40039 374.6543 C 426.27953 359.99126 430.33657 342.44158 428.62305 325.37305 C 426.89856 307.45549 419.01573 290.16624 406.46875 277.23828 C 401.0996 271.67906 394.92325 266.90271 388.19531 263.09961 C 387.58383 262.02985 386.52731 261.36035 385.41211 260.91797 C 383.437 259.84786 381.27964 259.04947 379.49609 257.66602 C 376.22859 254.67235 374.3281 250.55203 372.63086 246.53906 C 371.57516 243.90057 370.72631 241.18466 369.98242 238.44336 C 369.86954 237.98116 369.63281 237.09323 369.50977 236.5957 C 368.40181 232.08038 367.61536 227.49194 367.01758 222.88281 C 366.81102 221.23675 366.59444 219.37306 366.43164 217.63672 C 365.87247 211.77836 365.57911 205.8922 365.48633 200.05469 C 365.39083 194.42429 365.53179 188.79001 365.94727 183.17383 C 366.03107 182.17535 366.12986 180.90572 366.24805 179.80469 C 366.43397 177.85366 366.68747 175.90902 366.96289 173.96875 C 367.07127 173.32108 367.21167 172.35448 367.3418 171.58398 C 368.4863 165.05271 370.13978 158.52143 373.16016 152.58398 C 374.44331 150.18777 375.92129 147.81372 377.97461 146.00195 C 379.76568 144.67572 381.7731 143.67718 383.63086 142.44922 C 388.36559 139.55006 393.09954 136.65159 397.83398 133.75195 C 396.2194 133.80405 394.60482 133.85612 392.99023 133.9082 C 406.50676 121.63672 415.65929 104.63874 418.33203 86.568359 C 419.82368 76.695626 419.44593 66.544083 417.23047 56.808594 z M 290.22461 140.84375 C 291.73251 140.9586 293.32279 141.03096 294.70508 141.68555 C 300.82296 145.73011 307.50978 148.90828 314.50195 151.11914 C 317.29144 154.18238 319.30728 157.86156 320.91406 161.6582 C 321.09965 162.12363 321.43269 162.9164 321.6543 163.51367 C 324.87841 171.91769 326.49823 180.84191 327.48828 189.75977 C 327.60207 190.90698 327.74925 192.24373 327.83984 193.39258 C 328.09286 196.2772 328.25436 199.18882 328.39453 201.94531 C 328.55168 205.93099 328.62741 209.95733 328.5332 213.99805 C 328.36596 221.81339 327.604 229.87185 325.78906 237.58008 C 325.27638 239.78483 324.65554 241.96374 323.93359 244.10938 C 323.82695 244.42145 323.5763 245.12721 323.41211 245.58984 C 321.4286 250.83828 318.79139 256.0011 314.73828 259.96094 C 313.81239 260.77788 312.56754 261.13345 311.51367 261.76953 C 306.18653 264.49581 301.20028 267.87505 296.62695 271.73047 C 291.00946 273.18782 285.12155 272.4002 279.51172 271.32227 C 278.4478 271.1065 277.47062 270.89054 276.36328 270.61328 C 273.70805 269.96094 270.86891 269.10909 268.19141 268.19141 C 264.8362 267.03759 261.39398 265.67437 258.22266 264.31445 C 247.28039 259.5234 236.70327 253.85386 226.78711 247.18555 C 219.72686 242.35226 212.92276 236.98676 207.39453 230.41211 C 204.63619 227.01896 202.01008 223.36329 200.67773 219.15039 C 200.12032 217.71753 200.52663 216.22137 200.52344 214.75781 C 200.66779 210.15039 200.37315 205.53691 199.77148 200.96875 C 199.55081 199.42785 199.567 197.64824 200.18164 196.12109 C 201.74848 191.48779 204.83722 187.57456 207.99023 183.91406 C 213.7275 177.46909 220.52774 172.07117 227.52344 167.0625 C 236.20076 160.95587 245.28498 155.40248 254.79102 150.67969 C 263.37052 146.49838 272.35054 142.85007 281.82422 141.3457 C 284.60063 140.9109 287.4144 140.66943 290.22461 140.84375 z "
       d="m 338.14062,-9.9570313 c -21.61931,0.1403344 -42.96196,8.8766125 -58.37109,24.0917973 -0.002,0.0019 -0.004,0.0039 -0.006,0.0059 -0.002,0.0019 -0.004,0.0039 -0.006,0.0059 -4.96806,4.868132 -9.21281,10.425352 -12.83008,16.365235 H -6 a 3.9616927,3.9616927 0 0 0 -3.9609375,3.960937 V 531.33594 A 3.9616927,3.9616927 0 0 0 -6,535.29687 h 496.86328 a 3.9616927,3.9616927 0 0 0 3.96094,-3.96093 V 34.472656 a 3.9616927,3.9616927 0 0 0 -3.96094,-3.960937 H 410.76367 C 401.39438,15.078701 387.04644,2.8070735 370.25586,-3.8789063 360.0869,-7.9678294 349.12769,-10.061193 338.1543,-9.9570313 Z M 19.439453,60.769531 H 255.74414 c -0.84653,5.21257 -1.32674,10.477289 -1.18359,15.753906 -0.86876,2.786667 -0.18449,4.967673 -0.17969,5.701172 a 3.9616927,3.9616927 0 0 0 0.0137,0.296875 c 0.21712,2.655793 0.40665,4.591762 0.006,5.847657 a 3.9616927,3.9616927 0 0 0 -0.0449,0.146484 c -1.02845,3.71097 -3.297,7.286442 -6.00391,10.746094 -5.63294,7.035671 -12.79727,12.942771 -20.40625,18.371091 -5.88466,4.14684 -11.96449,7.98706 -18.25781,11.38867 -1.42279,0.75641 -3.027,1.59549 -4.49609,2.31446 a 3.9616927,3.9616927 0 0 0 -0.002,0.002 c -8.97995,4.40461 -18.40972,7.80268 -28.03515,8.69727 -4.89082,0.36961 -9.66485,0.11835 -13.64844,-1.55469 -2.06834,-0.99901 -4.20187,-2.18705 -6.51758,-3.33789 l -0.0488,-0.0254 c -3.54458,-1.81967 -7.08859,-3.63798 -10.63281,-5.45703 a 3.9616927,3.9616927 0 0 0 -4.59375,0.9707 c -14.86685,-3.94747 -30.71699,-3.98484 -45.480468,0.40625 -17.017126,5.01909 -32.361513,15.45512 -43.121094,29.625 -11.688921,15.2664 -17.998969,34.51562 -17.359375,53.7832 1.9e-5,6.5e-4 -1.9e-5,0.001 0,0.002 0.576745,19.81761 8.298316,39.27957 21.623047,54.00781 12.959756,14.41477 30.91467,24.14828 50.12109,26.99219 0.002,3e-4 0.004,0.002 0.006,0.002 16.92244,2.58119 34.52709,-0.17037 49.86719,-7.74805 2.51697,-1.21619 4.84874,-2.58138 7.07227,-3.875 l -0.97852,0.40625 c 2.95686,-0.78252 4.37241,-2.41339 5.03906,-2.78711 a 3.9616927,3.9616927 0 0 0 0.31055,-0.19336 c 2.25176,-1.55107 3.97816,-2.73048 5.44922,-3.03711 a 3.9616927,3.9616927 0 0 0 0.16992,-0.041 c 5.08722,-1.29804 10.77545,-0.84015 16.52539,0.20508 8.27028,1.56705 16.43892,4.65896 24.29883,8.23046 6.14703,2.8244 12.13477,5.96816 17.88867,9.47266 1.33613,0.816 2.83658,1.76489 4.21484,2.66602 0.59792,0.40156 1.42441,0.94966 2.0254,1.37109 a 3.9616927,3.9616927 0 0 0 0.0215,0.0156 c 7.32671,5.06205 14.06669,10.86407 19.11133,17.82812 0.24219,0.33754 0.713,1.02502 1.0332,1.51367 2.30365,3.59152 4.08197,7.34027 4.63867,11.08594 0.12325,1.41356 -0.0636,3.31899 0.10547,5.71289 0.46007,11.96089 3.63895,23.71264 8.9668,34.41797 H 19.439453 Z m 402.517577,0 h 41.75195 V 370.69336 h -39.61523 c 6.99902,-14.05098 10.04205,-30.03173 8.47266,-45.69922 l -0.002,-0.0117 c -1.81345,-18.81363 -10.05458,-36.9003 -23.24609,-50.49609 l -0.004,-0.004 c -5.51985,-5.7145 -11.86472,-10.60731 -18.75586,-14.55664 -1.14848,-1.28374 -2.47535,-2.20939 -3.68554,-2.68945 l 0.42578,0.19922 c -2.24796,-1.21794 -4.07247,-1.96362 -5.22656,-2.82032 -2.42723,-2.2819 -4.14311,-5.72642 -5.7754,-9.58203 -0.97263,-2.43595 -1.77634,-4.99095 -2.49023,-7.62109 -5.5e-4,-0.002 -0.001,-0.004 -0.002,-0.006 -0.14004,-0.56558 -0.35215,-1.36922 -0.44922,-1.76172 -1.06111,-4.32595 -1.8249,-8.76173 -2.4082,-13.25586 l -0.002,-0.0117 c -1.6e-4,-0.001 1.7e-4,-0.003 0,-0.004 -0.20259,-1.6153 -0.41388,-3.43705 -0.57031,-5.10547 a 3.9616927,3.9616927 0 0 0 0,-0.008 c -0.54777,-5.73897 -0.83639,-11.52044 -0.92773,-17.26758 a 3.9616927,3.9616927 0 0 0 0,-0.004 c -0.0936,-5.5195 0.0452,-11.03397 0.45117,-16.52148 0.0848,-1.01196 0.18166,-2.23969 0.28906,-3.24024 a 3.9616927,3.9616927 0 0 0 0.004,-0.0469 c 0.17724,-1.85997 0.42216,-3.74381 0.69336,-5.6543 0.11729,-0.71042 0.24752,-1.59304 0.35937,-2.25781 v -0.002 c 1.10864,-6.32607 2.69304,-12.4569 5.43945,-17.86328 1.16432,-2.16735 2.40049,-4.03646 3.82032,-5.32422 1.40445,-1.01277 3.24851,-1.96123 5.31054,-3.32421 l -0.11523,0.0742 c 4.73465,-2.89911 9.46839,-5.79744 14.20312,-8.69726 a 3.9616927,3.9616927 0 0 0 1.02735,-5.54688 c 11.28792,-12.2724 18.86913,-27.88149 21.31836,-44.423824 v -0.0039 c 1.3207,-8.744029 1.16091,-17.668902 -0.29102,-26.386719 z m -132,84.029299 c 1.56226,0.12047 2.63012,0.26939 3.04883,0.46679 5.2e-4,2.5e-4 0.003,-2.4e-4 0.004,0 5.90913,3.84846 12.31786,6.88128 18.99804,9.11719 2.13409,2.50215 3.85617,5.50936 5.25391,8.81055 0.001,0.003 0.003,0.005 0.004,0.008 0.2151,0.53666 0.51212,1.25556 0.67383,1.69141 a 3.9616927,3.9616927 0 0 0 0.0156,0.0391 c 3.04712,7.94268 4.62596,16.53067 5.5957,25.26563 0.11622,1.16829 0.25785,2.46603 0.33984,3.50585 a 3.9616927,3.9616927 0 0 0 0.004,0.0352 c 0.24477,2.79054 0.40182,5.64535 0.54102,8.38086 0.15451,3.92498 0.22821,7.863 0.13672,11.78711 a 3.9616927,3.9616927 0 0 0 0,0.008 c -0.16298,7.61627 -0.90821,15.40835 -2.63868,22.75781 a 3.9616927,3.9616927 0 0 0 -0.002,0.0117 c -0.48329,2.07839 -1.0696,4.13416 -1.75195,6.16211 -0.0822,0.23982 -0.3122,0.88989 -0.47461,1.34766 -1.8574,4.91375 -4.25662,9.47482 -7.63672,12.82226 -0.0617,0.038 -0.97504,0.40971 -2.47852,1.29883 -5.2215,2.6841 -10.07868,5.98557 -14.58398,9.6836 -4.47915,0.99878 -9.52168,0.43707 -14.73633,-0.56446 -0.003,-6.4e-4 -0.006,-0.001 -0.01,-0.002 -1.00606,-0.20447 -1.90242,-0.40196 -2.9336,-0.66016 a 3.9616927,3.9616927 0 0 0 -0.0176,-0.006 c -2.51333,-0.61747 -5.25303,-1.43785 -7.82812,-2.32031 l -0.004,-0.002 c -3.22525,-1.10927 -6.57631,-2.43353 -9.66601,-3.75781 l -0.0117,-0.006 c -10.73538,-4.70123 -21.08827,-10.25331 -30.77344,-16.76367 l -0.008,-0.006 c -6.89709,-4.72215 -13.38964,-9.87174 -18.56446,-16.01758 -2.64873,-3.26039 -4.92063,-6.53073 -5.99804,-9.9375 a 3.9616927,3.9616927 0 0 0 -0.0859,-0.24024 c 0.0158,0.0406 0.11292,-0.80981 0.11328,-2.89257 0.14775,-4.83826 -0.16091,-9.64639 -0.7832,-14.3711 a 3.9616927,3.9616927 0 0 0 -0.006,-0.0449 c -0.15614,-1.0903 -0.0616,-2.24598 0.16406,-2.80664 a 3.9616927,3.9616927 0 0 0 0.0762,-0.20899 c 1.27406,-3.76751 3.96889,-7.2993 7.03516,-10.86132 5.42321,-6.08741 11.96343,-11.30608 18.83398,-16.22657 0.004,-0.003 0.009,-0.005 0.0137,-0.008 8.52575,-5.99913 17.42644,-11.44009 26.71093,-16.05469 l 0.002,-0.002 c 8.41343,-4.10024 17.03492,-7.56823 25.9082,-8.97851 2.58631,-0.40503 5.10433,-0.6087 7.51953,-0.46094 z" />
    <path
       id="rect13"
       d="M -0.000671875 40.472656 L -0.000671875 525.33594 L 484.86261 525.33594 L 484.86261 40.472656 L -0.000671875 40.472656 z M 9.4778438 50.808594 L 473.66925 50.808594 L 473.66925 380.6543 L 9.4778438 380.6543 L 9.4778438 50.808594 z " />
    <path
       d="m 383.476,267.343 c -2.544,-1.346 -5.14,-2.493 -7.743,-3.516 l 1.863,-0.15 c 0,0 -16.608,-7.354 -18.057,-60.722 -1.438,-53.372 15.828,-62.478 15.828,-62.478 l -2.48,0.109 c 13.045,-6.69 24.265,-17.267 31.669,-31.216 19.295,-36.291 5.488,-81.362 -30.81,-100.657 -36.31,-19.276 -81.372,-5.506 -100.656,30.817 -7.927,14.899 -10.178,31.273 -7.677,46.733 l -0.851,-1.306 c 0,0 4.373,19.365 -41.032,47.55 -45.397,28.2 -65.877,14.159 -65.877,14.159 l 1.302,1.925 c -1.298,-0.803 -2.544,-1.624 -3.901,-2.333 -36.306,-19.294 -81.38,-5.509 -100.667,30.804 -19.281,36.309 -5.489,81.365 30.813,100.668 27.064,14.364 58.974,10.36 81.461,-7.655 l -0.487,0.946 c 0,0 16.531,-13.599 64.16,11.973 37.601,20.178 43.184,39.956 43.899,47.383 -0.983,27.57 13.388,54.618 39.389,68.433 36.301,19.299 81.374,5.498 100.657,-30.804 19.292,-36.302 5.507,-81.382 -30.803,-100.663 z m -83.934,9.785 c -6.018,2.129 -23.203,4.487 -59.389,-14.921 -39.187,-21.04 -45.005,-38.615 -45.855,-43.891 0.557,-6.401 0.202,-12.791 -0.891,-19.02 l 0.239,0.359 c 0,0 -3.189,-17.096 41.65,-44.943 40.133,-24.908 58.376,-19.955 61.771,-18.653 2.185,1.485 4.45,2.867 6.825,4.131 4.518,2.398 9.174,4.283 13.888,5.672 5.52,5.257 15.678,20.178 16.733,59.413 1.078,39.535 -10.533,54.779 -16.865,60.168 -6.526,2.956 -12.626,6.897 -18.106,11.685 z"
       fill="#0c479c"
       id="path14" />
    <path
       d="m 294.631,32.4 c -21.659,23.694 -22.118,58.544 -1.246,78.264 -10.316,-9.935 -10.093,-30.608 0.33,-50.387 1.342,-1.774 5.224,-5.961 10.898,-4.055 0.569,0.194 0.951,0.245 1.17,0.213 1.284,0.278 2.601,0.439 3.96,0.381 8.622,-0.393 15.288,-7.684 14.898,-16.307 -0.175,-3.868 -1.78,-7.292 -4.26,-9.92 20.007,-13.107 42.968,-14.61 52.375,-6.016 l 0.359,0.025 C 351.625,4.97 316.493,8.476 294.631,32.4 Z"
       fill="#ffffff"
       id="path15" />
    <path
       d="m 76.894,172.52 c -21.663,23.694 -22.114,58.541 -1.251,78.264 -10.313,-9.935 -10.092,-30.608 0.331,-50.387 1.345,-1.778 5.231,-5.961 10.906,-4.055 0.565,0.195 0.946,0.242 1.167,0.212 1.283,0.275 2.603,0.44 3.959,0.377 8.623,-0.392 15.288,-7.684 14.899,-16.303 -0.179,-3.867 -1.782,-7.296 -4.252,-9.92 19.995,-13.107 42.959,-14.617 52.366,-6.021 l 0.355,0.03 c -21.483,-19.631 -56.623,-16.126 -78.48,7.803 z"
       fill="#ffffff"
       id="path16" />
    <path
       d="m 307.39,291.145 c -21.666,23.704 -22.118,58.553 -1.254,78.276 -10.317,-9.935 -10.09,-30.611 0.331,-50.388 1.344,-1.781 5.227,-5.96 10.906,-4.053 0.568,0.189 0.941,0.242 1.166,0.212 1.282,0.277 2.605,0.44 3.963,0.381 8.617,-0.396 15.28,-7.692 14.891,-16.32 -0.176,-3.864 -1.781,-7.288 -4.252,-9.917 20.002,-13.103 42.959,-14.61 52.37,-6.016 l 0.355,0.029 c -21.483,-19.631 -56.625,-16.123 -78.476,7.796 z"
       fill="#ffffff"
       id="path17" />
    <text
       transform="matrix(0.74588601,0,0,1.2228888,-29.182303,-113.23401)"
       y="498"
       x="44"
       font-family="Verdana"
       font-size="112px"
       font-weight="bold"
       fill="#ffffff"
       id="text18"
       style="font-size:93.6655px;letter-spacing:-7.05784px">RDF/SPARQL</text>
  </g>
</svg>
